<svg xmlns="http://www.w3.org/2000/svg" xmlns:xlink="http://www.w3.org/1999/xlink" zoomAndPan="magnify" preserveAspectRatio="xMidYMid meet" version="1.2" viewBox="82.09 57.95 210.53 258.74"><defs><clipPath id="aec83e3fdd"><path d="M 82.078125 57.949219 L 292.828125 57.949219 L 292.828125 316.699219 L 82.078125 316.699219 Z M 82.078125 57.949219 "></path></clipPath><clipPath id="4dc6c663be"><path d="M 178.0625 266.53125 L 196.8125 266.53125 L 196.8125 284.53125 L 178.0625 284.53125 Z M 178.0625 266.53125 "></path></clipPath><clipPath id="1d5a270945"><path d="M 201.882812 270.1875 L 213 270.1875 L 213 280.6875 L 201.882812 280.6875 Z M 201.882812 270.1875 "></path></clipPath><clipPath id="c8a38667e1"><path d="M 161.910156 270.1875 L 173 270.1875 L 173 280.6875 L 161.910156 280.6875 Z M 161.910156 270.1875 "></path></clipPath><clipPath id="b3aa4b4880"><path d="M 232.75 79.160156 L 244 79.160156 L 244 89.660156 L 232.75 89.660156 Z M 232.75 79.160156 "></path></clipPath><clipPath id="a4835696ff"><path d="M 131.046875 79.160156 L 142.296875 79.160156 L 142.296875 89.660156 L 131.046875 89.660156 Z M 131.046875 79.160156 "></path></clipPath><clipPath id="11bfee6406"><path d="M 224 102.742188 L 232.5 102.742188 L 232.5 111.101562 L 224 111.101562 Z M 224 102.742188 "></path></clipPath><clipPath id="0bc8c9e82e"><path d="M 141.75 185 L 150.109375 185 L 150.109375 193.492188 L 141.75 193.492188 Z M 141.75 185 "></path></clipPath></defs><g id="b6edfe9fdd"><g clip-rule="nonzero" clip-path="url(#aec83e3fdd)"><path style=" stroke:none;fill-rule:nonzero;fill:#3b267a;fill-opacity:1;" d="M 265.871094 81.121094 C 261.023438 70.339844 264.625 60.171875 265.472656 57.945312 C 239.433594 58.171875 213.390625 58.394531 187.351562 58.617188 C 161.3125 58.394531 135.273438 58.171875 109.230469 57.945312 C 110.078125 60.171875 113.683594 70.339844 108.832031 81.121094 C 104.257812 91.300781 93.914062 98.101562 82.085938 98.863281 C 82.347656 145.964844 82.613281 193.0625 82.878906 240.160156 C 90.207031 251.886719 102.050781 267.773438 120.222656 282.667969 C 145.859375 303.679688 187.335938 316.691406 187.351562 316.6875 C 187.367188 316.691406 228.84375 303.679688 254.480469 282.667969 C 272.652344 267.773438 284.492188 251.886719 291.824219 240.160156 C 292.089844 193.0625 292.355469 145.964844 292.617188 98.863281 C 280.789062 98.101562 270.445312 91.300781 265.871094 81.121094 Z M 265.871094 81.121094 "></path></g><path style=" stroke:none;fill-rule:nonzero;fill:#b6f947;fill-opacity:1;" d="M 187.359375 302.589844 L 186.640625 302.335938 C 182.347656 300.820312 175.605469 298.304688 167.871094 294.925781 C 151.613281 287.820312 138.066406 280.007812 128.699219 272.328125 C 116.300781 262.167969 105.496094 250.195312 96.582031 236.75 L 96.226562 236.210938 L 95.515625 109.691406 L 96.902344 109.15625 C 107.816406 104.941406 116.382812 96.933594 121.027344 86.605469 C 122.902344 82.433594 124.070312 77.996094 124.496094 73.421875 L 124.679688 71.449219 L 187.351562 71.988281 L 250.027344 71.449219 L 250.210938 73.421875 C 250.632812 77.996094 251.800781 82.433594 253.675781 86.601562 C 258.320312 96.933594 266.890625 104.941406 277.800781 109.15625 L 279.1875 109.691406 L 278.476562 236.210938 L 278.121094 236.746094 C 269.210938 250.195312 258.40625 262.164062 246.007812 272.328125 C 236.632812 280.011719 223.074219 287.828125 206.800781 294.9375 C 199.003906 298.347656 192.3125 300.84375 188.074219 302.335938 Z M 100.53125 234.898438 C 109.136719 247.769531 119.53125 259.238281 131.429688 268.992188 C 140.5 276.421875 153.695312 284.023438 169.597656 290.972656 C 176.792969 294.121094 183.117188 296.503906 187.359375 298.015625 C 191.546875 296.523438 197.824219 294.15625 205.074219 290.988281 C 220.992188 284.035156 234.199219 276.429688 243.273438 268.992188 C 255.175781 259.238281 265.566406 247.769531 274.171875 234.898438 L 274.859375 112.617188 C 269.527344 110.378906 264.714844 107.277344 260.539062 103.394531 C 255.929688 99.109375 252.300781 94.054688 249.742188 88.371094 C 247.945312 84.367188 246.734375 80.144531 246.140625 75.792969 L 187.351562 76.300781 L 187.332031 76.300781 C 187.332031 76.300781 128.5625 75.792969 128.5625 75.792969 C 127.96875 80.144531 126.761719 84.367188 124.960938 88.371094 C 122.40625 94.054688 118.773438 99.109375 114.167969 103.394531 C 109.988281 107.277344 105.175781 110.378906 99.84375 112.617188 Z M 100.53125 234.898438 "></path><g clip-rule="nonzero" clip-path="url(#4dc6c663be)"><path style=" stroke:none;fill-rule:nonzero;fill:#ffffff;fill-opacity:1;" d="M 187.4375 280.273438 L 193.230469 284.488281 L 191.011719 277.679688 L 196.804688 273.558594 L 189.699219 273.558594 L 187.4375 266.53125 L 185.171875 273.558594 L 178.066406 273.558594 L 183.859375 277.679688 L 181.652344 284.488281 Z M 187.4375 280.273438 "></path></g><g clip-rule="nonzero" clip-path="url(#1d5a270945)"><path style=" stroke:none;fill-rule:nonzero;fill:#ffffff;fill-opacity:1;" d="M 207.363281 278.222656 L 210.75 280.6875 L 209.453125 276.707031 L 212.839844 274.296875 L 208.6875 274.296875 L 207.363281 270.1875 L 206.039062 274.296875 L 201.886719 274.296875 L 205.273438 276.707031 L 203.980469 280.6875 Z M 207.363281 278.222656 "></path></g><g clip-rule="nonzero" clip-path="url(#c8a38667e1)"><path style=" stroke:none;fill-rule:nonzero;fill:#ffffff;fill-opacity:1;" d="M 167.390625 278.222656 L 170.777344 280.6875 L 169.480469 276.707031 L 172.867188 274.296875 L 168.714844 274.296875 L 167.390625 270.1875 L 166.066406 274.296875 L 161.914062 274.296875 L 165.300781 276.707031 L 164.007812 280.6875 Z M 167.390625 278.222656 "></path></g><g clip-rule="nonzero" clip-path="url(#b3aa4b4880)"><path style=" stroke:none;fill-rule:nonzero;fill:#ffffff;fill-opacity:1;" d="M 238.230469 87.195312 L 241.617188 89.660156 L 240.320312 85.679688 L 243.707031 83.269531 L 239.554688 83.269531 L 238.230469 79.160156 L 236.90625 83.269531 L 232.75 83.269531 L 236.136719 85.679688 L 234.847656 89.660156 Z M 238.230469 87.195312 "></path></g><g clip-rule="nonzero" clip-path="url(#a4835696ff)"><path style=" stroke:none;fill-rule:nonzero;fill:#ffffff;fill-opacity:1;" d="M 136.523438 87.195312 L 139.914062 89.660156 L 138.617188 85.679688 L 142.003906 83.269531 L 137.847656 83.269531 L 136.523438 79.160156 L 135.199219 83.269531 L 131.046875 83.269531 L 134.433594 85.679688 L 133.140625 89.660156 Z M 136.523438 87.195312 "></path></g><path style=" stroke:none;fill-rule:nonzero;fill:#ffffff;fill-opacity:1;" d="M 180.5625 154.773438 C 180.355469 154.773438 180.148438 154.761719 179.941406 154.734375 C 178.4375 154.539062 177.136719 153.667969 176.367188 152.347656 C 172.386719 145.507812 173.519531 136.820312 179.121094 131.21875 L 192.59375 117.746094 C 199.40625 110.933594 210.484375 110.933594 217.292969 117.746094 C 224.105469 124.554688 224.105469 135.636719 217.292969 142.445312 L 210.550781 149.191406 C 208.691406 151.046875 205.671875 151.046875 203.8125 149.191406 C 201.957031 147.332031 201.957031 144.3125 203.8125 142.453125 L 210.558594 135.707031 C 212.167969 134.097656 213.007812 131.867188 212.863281 129.585938 C 212.714844 127.273438 211.617188 125.214844 209.765625 123.785156 C 206.636719 121.367188 202.046875 121.765625 199.097656 124.714844 L 185.855469 137.953125 C 183.300781 140.511719 182.792969 144.476562 184.628906 147.59375 C 185.730469 149.472656 185.433594 151.851562 183.902344 153.382812 C 183.003906 154.28125 181.8125 154.773438 180.5625 154.773438 "></path><path style=" stroke:none;fill-rule:nonzero;fill:#ffffff;fill-opacity:1;" d="M 169.308594 183.1875 C 164.835938 183.1875 160.363281 181.488281 156.957031 178.082031 C 153.660156 174.78125 151.84375 170.398438 151.84375 165.730469 C 151.84375 161.066406 153.660156 156.679688 156.957031 153.378906 L 163.703125 146.636719 C 165.558594 144.777344 168.582031 144.777344 170.441406 146.636719 C 171.339844 147.535156 171.835938 148.730469 171.835938 150.003906 C 171.835938 151.277344 171.339844 152.472656 170.441406 153.371094 L 163.695312 160.117188 C 162.085938 161.726562 161.242188 163.960938 161.390625 166.242188 C 161.539062 168.554688 162.636719 170.613281 164.484375 172.039062 C 167.617188 174.460938 172.207031 174.0625 175.15625 171.109375 L 188.394531 157.871094 C 190.953125 155.3125 191.457031 151.347656 189.625 148.230469 C 188.519531 146.355469 188.820312 143.972656 190.351562 142.445312 C 191.398438 141.394531 192.851562 140.910156 194.3125 141.09375 C 195.8125 141.289062 197.117188 142.15625 197.886719 143.476562 C 201.867188 150.316406 200.734375 159.007812 195.132812 164.609375 L 181.660156 178.082031 C 178.253906 181.484375 173.78125 183.1875 169.308594 183.1875 "></path><path style=" stroke:none;fill-rule:nonzero;fill:#ffffff;fill-opacity:1;" d="M 225.300781 112.191406 L 223.054688 109.945312 L 228.667969 104.332031 L 230.914062 106.578125 L 225.300781 112.191406 "></path><g clip-rule="nonzero" clip-path="url(#11bfee6406)"><path style=" stroke:none;fill-rule:nonzero;fill:#ffffff;fill-opacity:1;" d="M 232.503906 111.070312 L 229.328125 111.070312 L 229.328125 105.921875 L 224.179688 105.921875 L 224.179688 102.746094 L 232.503906 102.746094 L 232.503906 111.070312 "></path></g><path style=" stroke:none;fill-rule:nonzero;fill:#ffffff;fill-opacity:1;" d="M 145.582031 191.90625 L 143.339844 189.664062 L 148.953125 184.050781 L 151.199219 186.292969 L 145.582031 191.90625 "></path><g clip-rule="nonzero" clip-path="url(#0bc8c9e82e)"><path style=" stroke:none;fill-rule:nonzero;fill:#ffffff;fill-opacity:1;" d="M 150.074219 193.496094 L 141.75 193.496094 L 141.75 185.171875 L 144.925781 185.171875 L 144.925781 190.320312 L 150.074219 190.320312 L 150.074219 193.496094 "></path></g><path style=" stroke:none;fill-rule:nonzero;fill:#ffffff;fill-opacity:1;" d="M 169.355469 131.9375 C 168.949219 131.9375 168.542969 131.78125 168.230469 131.472656 L 158.128906 121.367188 C 157.507812 120.746094 157.507812 119.742188 158.128906 119.121094 C 158.746094 118.5 159.753906 118.5 160.375 119.121094 L 170.476562 129.226562 C 171.097656 129.847656 171.097656 130.851562 170.476562 131.472656 C 170.167969 131.78125 169.761719 131.9375 169.355469 131.9375 "></path><path style=" stroke:none;fill-rule:nonzero;fill:#ffffff;fill-opacity:1;" d="M 177.214844 124.078125 C 176.515625 124.078125 175.875 123.613281 175.683594 122.90625 L 172.3125 110.554688 C 172.082031 109.710938 172.582031 108.835938 173.429688 108.605469 C 174.277344 108.375 175.148438 108.875 175.378906 109.71875 L 178.746094 122.070312 C 178.976562 122.917969 178.476562 123.789062 177.632812 124.023438 C 177.492188 124.058594 177.351562 124.078125 177.214844 124.078125 "></path><path style=" stroke:none;fill-rule:nonzero;fill:#ffffff;fill-opacity:1;" d="M 161.496094 139.796875 C 161.359375 139.796875 161.21875 139.777344 161.078125 139.738281 L 148.726562 136.371094 C 147.878906 136.140625 147.382812 135.269531 147.613281 134.421875 C 147.84375 133.578125 148.71875 133.082031 149.5625 133.308594 L 161.914062 136.675781 C 162.757812 136.90625 163.257812 137.78125 163.027344 138.625 C 162.835938 139.332031 162.195312 139.796875 161.496094 139.796875 "></path><path style=" stroke:none;fill-rule:nonzero;fill:#ffffff;fill-opacity:1;" d="M 215.003906 177.585938 C 214.597656 177.585938 214.191406 177.429688 213.878906 177.117188 L 203.777344 167.015625 C 203.15625 166.394531 203.15625 165.390625 203.777344 164.769531 C 204.394531 164.148438 205.402344 164.148438 206.019531 164.769531 L 216.125 174.875 C 216.746094 175.492188 216.746094 176.5 216.125 177.117188 C 215.816406 177.429688 215.410156 177.585938 215.003906 177.585938 "></path><path style=" stroke:none;fill-rule:nonzero;fill:#ffffff;fill-opacity:1;" d="M 225.109375 162.988281 C 224.96875 162.988281 224.832031 162.96875 224.691406 162.933594 L 212.339844 159.5625 C 211.492188 159.332031 210.996094 158.460938 211.226562 157.613281 C 211.457031 156.769531 212.328125 156.269531 213.175781 156.5 L 225.527344 159.867188 C 226.371094 160.097656 226.871094 160.972656 226.640625 161.816406 C 226.445312 162.523438 225.808594 162.988281 225.109375 162.988281 "></path><path style=" stroke:none;fill-rule:nonzero;fill:#ffffff;fill-opacity:1;" d="M 200.40625 187.691406 C 199.707031 187.691406 199.066406 187.226562 198.875 186.519531 L 195.507812 174.167969 C 195.277344 173.324219 195.773438 172.449219 196.621094 172.21875 C 197.46875 171.988281 198.339844 172.484375 198.570312 173.332031 L 201.9375 185.683594 C 202.167969 186.53125 201.671875 187.402344 200.824219 187.632812 C 200.683594 187.671875 200.542969 187.691406 200.40625 187.691406 "></path><g style="fill:#ffffff;fill-opacity:1;"><g transform="translate(136.131602, 225.397953)"><path style="stroke:none" d="M 3.5 -16.296875 L 12.109375 -16.296875 C 12.753906 -16.296875 13.300781 -16.070312 13.75 -15.625 C 14.195312 -15.175781 14.421875 -14.625 14.421875 -13.96875 L 14.421875 -11.375 L 10.46875 -11.375 L 10.46875 -12.390625 C 10.46875 -12.554688 10.410156 -12.691406 10.296875 -12.796875 C 10.191406 -12.898438 10.050781 -12.953125 9.875 -12.953125 L 5.6875 -12.953125 C 5.519531 -12.953125 5.378906 -12.898438 5.265625 -12.796875 C 5.160156 -12.691406 5.109375 -12.554688 5.109375 -12.390625 L 5.109375 -3.890625 C 5.109375 -3.722656 5.160156 -3.585938 5.265625 -3.484375 C 5.378906 -3.378906 5.519531 -3.328125 5.6875 -3.328125 L 9.875 -3.328125 C 10.050781 -3.328125 10.191406 -3.378906 10.296875 -3.484375 C 10.410156 -3.585938 10.46875 -3.722656 10.46875 -3.890625 L 10.46875 -5.734375 L 7.8125 -5.734375 L 7.8125 -9.0625 L 14.421875 -9.0625 L 14.421875 -2.328125 C 14.421875 -1.679688 14.195312 -1.128906 13.75 -0.671875 C 13.300781 -0.222656 12.753906 0 12.109375 0 L 3.5 0 C 2.851562 0 2.300781 -0.222656 1.84375 -0.671875 C 1.394531 -1.128906 1.171875 -1.679688 1.171875 -2.328125 L 1.171875 -13.96875 C 1.171875 -14.625 1.394531 -15.175781 1.84375 -15.625 C 2.300781 -16.070312 2.851562 -16.296875 3.5 -16.296875 Z M 3.5 -16.296875 "></path></g></g><g style="fill:#ffffff;fill-opacity:1;"><g transform="translate(151.912705, 225.397953)"><path style="stroke:none" d="M 1.171875 -16.296875 L 12.109375 -16.296875 C 12.753906 -16.296875 13.300781 -16.070312 13.75 -15.625 C 14.195312 -15.175781 14.421875 -14.625 14.421875 -13.96875 L 14.421875 -7.78125 C 14.421875 -7.144531 14.195312 -6.597656 13.75 -6.140625 C 13.300781 -5.691406 12.753906 -5.46875 12.109375 -5.46875 L 11.90625 -5.46875 L 15.6875 0 L 10.859375 0 L 7.09375 -5.46875 L 5.109375 -5.46875 L 5.109375 0 L 1.171875 0 Z M 5.109375 -8.796875 L 9.875 -8.796875 C 10.050781 -8.796875 10.191406 -8.847656 10.296875 -8.953125 C 10.410156 -9.054688 10.46875 -9.191406 10.46875 -9.359375 L 10.46875 -12.390625 C 10.46875 -12.554688 10.410156 -12.691406 10.296875 -12.796875 C 10.191406 -12.898438 10.050781 -12.953125 9.875 -12.953125 L 5.109375 -12.953125 Z M 5.109375 -8.796875 "></path></g></g><g style="fill:#ffffff;fill-opacity:1;"><g transform="translate(167.924042, 225.397953)"><path style="stroke:none" d="M 3.5 -16.296875 L 12.109375 -16.296875 C 12.523438 -16.296875 12.910156 -16.1875 13.265625 -15.96875 C 13.617188 -15.757812 13.898438 -15.476562 14.109375 -15.125 C 14.316406 -14.769531 14.421875 -14.382812 14.421875 -13.96875 L 14.421875 -2.328125 C 14.421875 -1.910156 14.316406 -1.523438 14.109375 -1.171875 C 13.898438 -0.828125 13.617188 -0.546875 13.265625 -0.328125 C 12.910156 -0.109375 12.523438 0 12.109375 0 L 3.5 0 C 3.082031 0 2.695312 -0.109375 2.34375 -0.328125 C 2 -0.546875 1.71875 -0.828125 1.5 -1.171875 C 1.28125 -1.523438 1.171875 -1.910156 1.171875 -2.328125 L 1.171875 -13.96875 C 1.171875 -14.382812 1.28125 -14.769531 1.5 -15.125 C 1.71875 -15.476562 2 -15.757812 2.34375 -15.96875 C 2.695312 -16.1875 3.082031 -16.296875 3.5 -16.296875 Z M 5.6875 -12.953125 C 5.519531 -12.953125 5.378906 -12.898438 5.265625 -12.796875 C 5.160156 -12.691406 5.109375 -12.554688 5.109375 -12.390625 L 5.109375 -3.890625 C 5.109375 -3.722656 5.160156 -3.585938 5.265625 -3.484375 C 5.378906 -3.378906 5.519531 -3.328125 5.6875 -3.328125 L 9.875 -3.328125 C 10.050781 -3.328125 10.191406 -3.378906 10.296875 -3.484375 C 10.410156 -3.585938 10.46875 -3.722656 10.46875 -3.890625 L 10.46875 -12.390625 C 10.46875 -12.554688 10.410156 -12.691406 10.296875 -12.796875 C 10.191406 -12.898438 10.050781 -12.953125 9.875 -12.953125 Z M 5.6875 -12.953125 "></path></g></g><g style="fill:#ffffff;fill-opacity:1;"><g transform="translate(183.705145, 225.397953)"><path style="stroke:none" d="M 0.234375 -16.296875 L 4.3125 -16.296875 L 6.40625 -6.484375 L 8.5 -16.296875 L 12.4375 -16.296875 L 14.53125 -6.484375 L 16.625 -16.296875 L 20.703125 -16.296875 L 16.5625 0 L 12.625 0 L 10.46875 -9.921875 L 8.3125 0 L 4.375 0 Z M 0.234375 -16.296875 "></path></g></g><g style="fill:#ffffff;fill-opacity:1;"><g transform="translate(204.844235, 225.397953)"><path style="stroke:none" d="M 0.234375 -16.296875 L 13.484375 -16.296875 L 13.484375 -12.953125 L 8.828125 -12.953125 L 8.828125 0 L 4.859375 0 L 4.859375 -12.953125 L 0.234375 -12.953125 Z M 0.234375 -16.296875 "></path></g></g><g style="fill:#ffffff;fill-opacity:1;"><g transform="translate(218.762608, 225.397953)"><path style="stroke:none" d="M 1.171875 -16.296875 L 5.109375 -16.296875 L 5.109375 -9.921875 L 10.46875 -9.921875 L 10.46875 -16.296875 L 14.421875 -16.296875 L 14.421875 0 L 10.46875 0 L 10.46875 -6.34375 L 5.109375 -6.34375 L 5.109375 0 L 1.171875 0 Z M 1.171875 -16.296875 "></path></g></g><g style="fill:#ffffff;fill-opacity:1;"><g transform="translate(138.287851, 254.647951)"><path style="stroke:none" d="M 1.171875 -16.296875 L 5.109375 -16.296875 L 5.109375 -9.921875 L 10.46875 -9.921875 L 10.46875 -16.296875 L 14.421875 -16.296875 L 14.421875 0 L 10.46875 0 L 10.46875 -6.34375 L 5.109375 -6.34375 L 5.109375 0 L 1.171875 0 Z M 1.171875 -16.296875 "></path></g></g><g style="fill:#ffffff;fill-opacity:1;"><g transform="translate(154.068955, 254.647951)"><path style="stroke:none" d="M 4.859375 -16.296875 L 11.4375 -16.296875 L 16.0625 0 L 11.96875 0 L 11.078125 -3.078125 L 5.234375 -3.078125 L 4.328125 0 L 0.234375 0 Z M 6.203125 -6.40625 L 10.109375 -6.40625 L 8.140625 -13.15625 Z M 6.203125 -6.40625 "></path></g></g><g style="fill:#ffffff;fill-opacity:1;"><g transform="translate(170.540744, 254.647951)"><path style="stroke:none" d="M 3.5 -16.296875 L 12.109375 -16.296875 C 12.753906 -16.296875 13.300781 -16.070312 13.75 -15.625 C 14.195312 -15.175781 14.421875 -14.625 14.421875 -13.96875 L 14.421875 -11.265625 L 10.46875 -11.265625 L 10.46875 -12.390625 C 10.46875 -12.554688 10.410156 -12.691406 10.296875 -12.796875 C 10.191406 -12.898438 10.050781 -12.953125 9.875 -12.953125 L 5.6875 -12.953125 C 5.519531 -12.953125 5.378906 -12.898438 5.265625 -12.796875 C 5.160156 -12.691406 5.109375 -12.554688 5.109375 -12.390625 L 5.109375 -3.890625 C 5.109375 -3.722656 5.160156 -3.585938 5.265625 -3.484375 C 5.378906 -3.378906 5.519531 -3.328125 5.6875 -3.328125 L 9.875 -3.328125 C 10.050781 -3.328125 10.191406 -3.378906 10.296875 -3.484375 C 10.410156 -3.585938 10.46875 -3.722656 10.46875 -3.890625 L 10.46875 -5.03125 L 14.421875 -5.03125 L 14.421875 -2.328125 C 14.421875 -1.679688 14.195312 -1.128906 13.75 -0.671875 C 13.300781 -0.222656 12.753906 0 12.109375 0 L 3.5 0 C 2.851562 0 2.300781 -0.222656 1.84375 -0.671875 C 1.394531 -1.128906 1.171875 -1.679688 1.171875 -2.328125 L 1.171875 -13.96875 C 1.171875 -14.625 1.394531 -15.175781 1.84375 -15.625 C 2.300781 -16.070312 2.851562 -16.296875 3.5 -16.296875 Z M 3.5 -16.296875 "></path></g></g><g style="fill:#ffffff;fill-opacity:1;"><g transform="translate(186.175341, 254.647951)"><path style="stroke:none" d="M 1.171875 -16.296875 L 5.109375 -16.296875 L 5.109375 -9.8125 L 8.203125 -9.8125 L 11.34375 -16.296875 L 15.703125 -16.296875 L 11.8125 -8.140625 L 15.703125 0 L 11.34375 0 L 8.203125 -6.484375 L 5.109375 -6.46875 L 5.109375 0 L 1.171875 0 Z M 1.171875 -16.296875 "></path></g></g><g style="fill:#ffffff;fill-opacity:1;"><g transform="translate(202.186677, 254.647951)"><path style="stroke:none" d="M 1.171875 -16.296875 L 13.359375 -16.296875 L 13.359375 -12.953125 L 5.109375 -12.953125 L 5.109375 -9.8125 L 11.03125 -9.8125 L 11.03125 -6.46875 L 5.109375 -6.46875 L 5.109375 -3.328125 L 13.359375 -3.328125 L 13.359375 0 L 1.171875 0 Z M 1.171875 -16.296875 "></path></g></g><g style="fill:#ffffff;fill-opacity:1;"><g transform="translate(216.377133, 254.647951)"><path style="stroke:none" d="M 1.171875 -16.296875 L 12.109375 -16.296875 C 12.753906 -16.296875 13.300781 -16.070312 13.75 -15.625 C 14.195312 -15.175781 14.421875 -14.625 14.421875 -13.96875 L 14.421875 -7.78125 C 14.421875 -7.144531 14.195312 -6.597656 13.75 -6.140625 C 13.300781 -5.691406 12.753906 -5.46875 12.109375 -5.46875 L 11.90625 -5.46875 L 15.6875 0 L 10.859375 0 L 7.09375 -5.46875 L 5.109375 -5.46875 L 5.109375 0 L 1.171875 0 Z M 5.109375 -8.796875 L 9.875 -8.796875 C 10.050781 -8.796875 10.191406 -8.847656 10.296875 -8.953125 C 10.410156 -9.054688 10.46875 -9.191406 10.46875 -9.359375 L 10.46875 -12.390625 C 10.46875 -12.554688 10.410156 -12.691406 10.296875 -12.796875 C 10.191406 -12.898438 10.050781 -12.953125 9.875 -12.953125 L 5.109375 -12.953125 Z M 5.109375 -8.796875 "></path></g></g><g style="fill:#ffffff;fill-opacity:1;"><g transform="translate(104.995618, 203.212369)"><path style="stroke:none" d="M 3.703125 -8.40625 L 3.703125 0 L 1.765625 0 L 1.765625 -6.84375 L 0.078125 -6.84375 L 0.078125 -8.40625 Z M 3.703125 -8.40625 "></path></g></g><g style="fill:#ffffff;fill-opacity:1;"><g transform="translate(109.699631, 203.212369)"><path style="stroke:none" d="M 3.421875 -8.546875 C 4.597656 -8.546875 5.515625 -8.1875 6.171875 -7.46875 C 6.835938 -6.75 7.171875 -5.71875 7.171875 -4.375 C 7.171875 -3.425781 6.992188 -2.609375 6.640625 -1.921875 C 6.285156 -1.242188 5.78125 -0.726562 5.125 -0.375 C 4.476562 -0.03125 3.734375 0.140625 2.890625 0.140625 C 2.441406 0.140625 2.015625 0.09375 1.609375 0 C 1.203125 -0.101562 0.851562 -0.25 0.5625 -0.4375 L 1.28125 -1.859375 C 1.6875 -1.578125 2.210938 -1.4375 2.859375 -1.4375 C 3.566406 -1.4375 4.128906 -1.644531 4.546875 -2.0625 C 4.960938 -2.488281 5.1875 -3.097656 5.21875 -3.890625 C 4.71875 -3.378906 4.019531 -3.125 3.125 -3.125 C 2.59375 -3.125 2.109375 -3.234375 1.671875 -3.453125 C 1.234375 -3.671875 0.882812 -3.976562 0.625 -4.375 C 0.363281 -4.769531 0.234375 -5.226562 0.234375 -5.75 C 0.234375 -6.3125 0.375 -6.800781 0.65625 -7.21875 C 0.9375 -7.644531 1.316406 -7.972656 1.796875 -8.203125 C 2.285156 -8.429688 2.828125 -8.546875 3.421875 -8.546875 Z M 3.5625 -4.578125 C 3.988281 -4.578125 4.332031 -4.695312 4.59375 -4.9375 C 4.863281 -5.175781 5 -5.476562 5 -5.84375 C 5 -6.207031 4.867188 -6.503906 4.609375 -6.734375 C 4.347656 -6.972656 3.992188 -7.09375 3.546875 -7.09375 C 3.128906 -7.09375 2.789062 -6.976562 2.53125 -6.75 C 2.269531 -6.53125 2.140625 -6.226562 2.140625 -5.84375 C 2.140625 -5.457031 2.269531 -5.148438 2.53125 -4.921875 C 2.789062 -4.691406 3.132812 -4.578125 3.5625 -4.578125 Z M 3.5625 -4.578125 "></path></g></g><g style="fill:#ffffff;fill-opacity:1;"><g transform="translate(254.419881, 203.212369)"><path style="stroke:none" d="M 3.421875 -8.546875 C 4.597656 -8.546875 5.515625 -8.1875 6.171875 -7.46875 C 6.835938 -6.75 7.171875 -5.71875 7.171875 -4.375 C 7.171875 -3.425781 6.992188 -2.609375 6.640625 -1.921875 C 6.285156 -1.242188 5.78125 -0.726562 5.125 -0.375 C 4.476562 -0.03125 3.734375 0.140625 2.890625 0.140625 C 2.441406 0.140625 2.015625 0.09375 1.609375 0 C 1.203125 -0.101562 0.851562 -0.25 0.5625 -0.4375 L 1.28125 -1.859375 C 1.6875 -1.578125 2.210938 -1.4375 2.859375 -1.4375 C 3.566406 -1.4375 4.128906 -1.644531 4.546875 -2.0625 C 4.960938 -2.488281 5.1875 -3.097656 5.21875 -3.890625 C 4.71875 -3.378906 4.019531 -3.125 3.125 -3.125 C 2.59375 -3.125 2.109375 -3.234375 1.671875 -3.453125 C 1.234375 -3.671875 0.882812 -3.976562 0.625 -4.375 C 0.363281 -4.769531 0.234375 -5.226562 0.234375 -5.75 C 0.234375 -6.3125 0.375 -6.800781 0.65625 -7.21875 C 0.9375 -7.644531 1.316406 -7.972656 1.796875 -8.203125 C 2.285156 -8.429688 2.828125 -8.546875 3.421875 -8.546875 Z M 3.5625 -4.578125 C 3.988281 -4.578125 4.332031 -4.695312 4.59375 -4.9375 C 4.863281 -5.175781 5 -5.476562 5 -5.84375 C 5 -6.207031 4.867188 -6.503906 4.609375 -6.734375 C 4.347656 -6.972656 3.992188 -7.09375 3.546875 -7.09375 C 3.128906 -7.09375 2.789062 -6.976562 2.53125 -6.75 C 2.269531 -6.53125 2.140625 -6.226562 2.140625 -5.84375 C 2.140625 -5.457031 2.269531 -5.148438 2.53125 -4.921875 C 2.789062 -4.691406 3.132812 -4.578125 3.5625 -4.578125 Z M 3.5625 -4.578125 "></path></g></g><g style="fill:#ffffff;fill-opacity:1;"><g transform="translate(262.063893, 203.212369)"><path style="stroke:none" d="M 6.21875 -4.421875 C 6.632812 -4.210938 6.953125 -3.9375 7.171875 -3.59375 C 7.390625 -3.257812 7.5 -2.875 7.5 -2.4375 C 7.5 -1.914062 7.347656 -1.457031 7.046875 -1.0625 C 6.753906 -0.675781 6.335938 -0.378906 5.796875 -0.171875 C 5.265625 0.0351562 4.648438 0.140625 3.953125 0.140625 C 3.242188 0.140625 2.625 0.0351562 2.09375 -0.171875 C 1.5625 -0.378906 1.148438 -0.675781 0.859375 -1.0625 C 0.566406 -1.457031 0.421875 -1.914062 0.421875 -2.4375 C 0.421875 -2.875 0.53125 -3.257812 0.75 -3.59375 C 0.96875 -3.9375 1.28125 -4.210938 1.6875 -4.421875 C 1.375 -4.609375 1.132812 -4.847656 0.96875 -5.140625 C 0.800781 -5.429688 0.71875 -5.765625 0.71875 -6.140625 C 0.71875 -6.628906 0.851562 -7.050781 1.125 -7.40625 C 1.394531 -7.769531 1.773438 -8.050781 2.265625 -8.25 C 2.753906 -8.445312 3.316406 -8.546875 3.953125 -8.546875 C 4.585938 -8.546875 5.148438 -8.445312 5.640625 -8.25 C 6.140625 -8.050781 6.523438 -7.769531 6.796875 -7.40625 C 7.066406 -7.050781 7.203125 -6.628906 7.203125 -6.140625 C 7.203125 -5.765625 7.117188 -5.429688 6.953125 -5.140625 C 6.785156 -4.847656 6.539062 -4.609375 6.21875 -4.421875 Z M 3.953125 -7.109375 C 3.554688 -7.109375 3.238281 -7.015625 3 -6.828125 C 2.769531 -6.640625 2.65625 -6.382812 2.65625 -6.0625 C 2.65625 -5.738281 2.769531 -5.484375 3 -5.296875 C 3.226562 -5.117188 3.546875 -5.03125 3.953125 -5.03125 C 4.347656 -5.03125 4.664062 -5.117188 4.90625 -5.296875 C 5.144531 -5.484375 5.265625 -5.738281 5.265625 -6.0625 C 5.265625 -6.382812 5.144531 -6.640625 4.90625 -6.828125 C 4.664062 -7.015625 4.347656 -7.109375 3.953125 -7.109375 Z M 3.953125 -1.28125 C 4.441406 -1.28125 4.828125 -1.390625 5.109375 -1.609375 C 5.390625 -1.828125 5.53125 -2.125 5.53125 -2.5 C 5.53125 -2.863281 5.390625 -3.15625 5.109375 -3.375 C 4.828125 -3.59375 4.441406 -3.703125 3.953125 -3.703125 C 3.472656 -3.703125 3.09375 -3.59375 2.8125 -3.375 C 2.53125 -3.15625 2.390625 -2.863281 2.390625 -2.5 C 2.390625 -2.125 2.53125 -1.828125 2.8125 -1.609375 C 3.09375 -1.390625 3.472656 -1.28125 3.953125 -1.28125 Z M 3.953125 -1.28125 "></path></g></g></g></svg>