<svg xmlns="http://www.w3.org/2000/svg" xmlns:xlink="http://www.w3.org/1999/xlink" zoomAndPan="magnify" preserveAspectRatio="xMidYMid meet" version="1.2" viewBox="82.09 57.95 210.53 258.74"><defs><clipPath id="d89209810d"><path d="M 82.078125 57.949219 L 292.828125 57.949219 L 292.828125 316.699219 L 82.078125 316.699219 Z M 82.078125 57.949219 "></path></clipPath><clipPath id="1c3d883d4c"><path d="M 178.0625 266.53125 L 196.8125 266.53125 L 196.8125 284.53125 L 178.0625 284.53125 Z M 178.0625 266.53125 "></path></clipPath><clipPath id="8d2e04da17"><path d="M 201.882812 270.1875 L 213 270.1875 L 213 280.6875 L 201.882812 280.6875 Z M 201.882812 270.1875 "></path></clipPath><clipPath id="a52cb13e11"><path d="M 161.910156 270.1875 L 173 270.1875 L 173 280.6875 L 161.910156 280.6875 Z M 161.910156 270.1875 "></path></clipPath><clipPath id="244875a0ad"><path d="M 232.75 79.160156 L 244 79.160156 L 244 89.660156 L 232.75 89.660156 Z M 232.75 79.160156 "></path></clipPath><clipPath id="1519f9931b"><path d="M 131.046875 79.160156 L 142.296875 79.160156 L 142.296875 89.660156 L 131.046875 89.660156 Z M 131.046875 79.160156 "></path></clipPath><clipPath id="eccd84597b"><path d="M 149 88.699219 L 220 88.699219 L 220 201.949219 L 149 201.949219 Z M 149 88.699219 "></path></clipPath></defs><g id="ff7eee11f4"><g clip-rule="nonzero" clip-path="url(#d89209810d)"><path style=" stroke:none;fill-rule:nonzero;fill:#da560c;fill-opacity:1;" d="M 265.871094 81.121094 C 261.023438 70.339844 264.625 60.171875 265.472656 57.945312 C 239.433594 58.171875 213.390625 58.394531 187.351562 58.617188 C 161.3125 58.394531 135.273438 58.171875 109.230469 57.945312 C 110.078125 60.171875 113.683594 70.339844 108.832031 81.121094 C 104.257812 91.300781 93.914062 98.101562 82.085938 98.863281 C 82.347656 145.964844 82.613281 193.0625 82.878906 240.160156 C 90.207031 251.886719 102.050781 267.773438 120.222656 282.667969 C 145.859375 303.679688 187.335938 316.691406 187.351562 316.6875 C 187.367188 316.691406 228.84375 303.679688 254.480469 282.667969 C 272.652344 267.773438 284.492188 251.886719 291.824219 240.160156 C 292.089844 193.0625 292.355469 145.964844 292.617188 98.863281 C 280.789062 98.101562 270.445312 91.300781 265.871094 81.121094 Z M 265.871094 81.121094 "></path></g><path style=" stroke:none;fill-rule:nonzero;fill:#ffffff;fill-opacity:1;" d="M 187.359375 302.589844 L 186.640625 302.335938 C 182.347656 300.820312 175.605469 298.304688 167.871094 294.925781 C 151.613281 287.820312 138.066406 280.007812 128.699219 272.328125 C 116.300781 262.167969 105.496094 250.195312 96.582031 236.75 L 96.226562 236.210938 L 95.515625 109.691406 L 96.902344 109.15625 C 107.816406 104.941406 116.382812 96.933594 121.027344 86.605469 C 122.902344 82.433594 124.070312 77.996094 124.496094 73.421875 L 124.679688 71.449219 L 187.351562 71.988281 L 250.027344 71.449219 L 250.210938 73.421875 C 250.632812 77.996094 251.800781 82.433594 253.675781 86.601562 C 258.320312 96.933594 266.890625 104.941406 277.800781 109.15625 L 279.1875 109.691406 L 278.476562 236.210938 L 278.121094 236.746094 C 269.210938 250.195312 258.40625 262.164062 246.007812 272.328125 C 236.632812 280.011719 223.074219 287.828125 206.800781 294.9375 C 199.003906 298.347656 192.3125 300.84375 188.074219 302.335938 Z M 100.53125 234.898438 C 109.136719 247.769531 119.53125 259.238281 131.429688 268.992188 C 140.5 276.421875 153.695312 284.023438 169.597656 290.972656 C 176.792969 294.121094 183.117188 296.503906 187.359375 298.015625 C 191.546875 296.523438 197.824219 294.15625 205.074219 290.988281 C 220.992188 284.035156 234.199219 276.429688 243.273438 268.992188 C 255.175781 259.238281 265.566406 247.769531 274.171875 234.898438 L 274.859375 112.617188 C 269.527344 110.378906 264.714844 107.277344 260.539062 103.394531 C 255.929688 99.109375 252.300781 94.054688 249.742188 88.371094 C 247.945312 84.367188 246.734375 80.144531 246.140625 75.792969 L 187.351562 76.300781 L 187.332031 76.300781 C 187.332031 76.300781 128.5625 75.792969 128.5625 75.792969 C 127.96875 80.144531 126.761719 84.367188 124.960938 88.371094 C 122.40625 94.054688 118.773438 99.109375 114.167969 103.394531 C 109.988281 107.277344 105.175781 110.378906 99.84375 112.617188 Z M 100.53125 234.898438 "></path><g clip-rule="nonzero" clip-path="url(#1c3d883d4c)"><path style=" stroke:none;fill-rule:nonzero;fill:#052222;fill-opacity:1;" d="M 187.4375 280.273438 L 193.230469 284.488281 L 191.011719 277.679688 L 196.804688 273.558594 L 189.699219 273.558594 L 187.4375 266.53125 L 185.171875 273.558594 L 178.066406 273.558594 L 183.859375 277.679688 L 181.652344 284.488281 Z M 187.4375 280.273438 "></path></g><g clip-rule="nonzero" clip-path="url(#8d2e04da17)"><path style=" stroke:none;fill-rule:nonzero;fill:#052222;fill-opacity:1;" d="M 207.363281 278.222656 L 210.75 280.6875 L 209.453125 276.707031 L 212.839844 274.296875 L 208.6875 274.296875 L 207.363281 270.1875 L 206.039062 274.296875 L 201.886719 274.296875 L 205.273438 276.707031 L 203.980469 280.6875 Z M 207.363281 278.222656 "></path></g><g clip-rule="nonzero" clip-path="url(#a52cb13e11)"><path style=" stroke:none;fill-rule:nonzero;fill:#052222;fill-opacity:1;" d="M 167.390625 278.222656 L 170.777344 280.6875 L 169.480469 276.707031 L 172.867188 274.296875 L 168.714844 274.296875 L 167.390625 270.1875 L 166.066406 274.296875 L 161.914062 274.296875 L 165.300781 276.707031 L 164.007812 280.6875 Z M 167.390625 278.222656 "></path></g><g clip-rule="nonzero" clip-path="url(#244875a0ad)"><path style=" stroke:none;fill-rule:nonzero;fill:#052222;fill-opacity:1;" d="M 238.230469 87.195312 L 241.617188 89.660156 L 240.320312 85.679688 L 243.707031 83.269531 L 239.554688 83.269531 L 238.230469 79.160156 L 236.90625 83.269531 L 232.75 83.269531 L 236.136719 85.679688 L 234.847656 89.660156 Z M 238.230469 87.195312 "></path></g><g clip-rule="nonzero" clip-path="url(#1519f9931b)"><path style=" stroke:none;fill-rule:nonzero;fill:#052222;fill-opacity:1;" d="M 136.523438 87.195312 L 139.914062 89.660156 L 138.617188 85.679688 L 142.003906 83.269531 L 137.847656 83.269531 L 136.523438 79.160156 L 135.199219 83.269531 L 131.046875 83.269531 L 134.433594 85.679688 L 133.140625 89.660156 Z M 136.523438 87.195312 "></path></g><g clip-rule="nonzero" clip-path="url(#eccd84597b)"><path style=" stroke:none;fill-rule:nonzero;fill:#f9e830;fill-opacity:1;" d="M 190.15625 201.355469 C 201.125 195.664062 201.613281 177.691406 196.429688 175.71875 C 197.359375 179.242188 193.25 181.929688 190.15625 185.378906 C 194.335938 173.644531 180.917969 161.90625 184.464844 153.765625 C 163.914062 165.660156 164.085938 193.585938 178.601562 201.25 C 158.695312 197.445312 139.6875 175.503906 156.359375 146.964844 C 166.542969 129.527344 196.960938 109.792969 183.285156 88.640625 C 202.082031 99.667969 213.234375 125.570312 198.9375 159.980469 C 202.082031 158.953125 206.179688 152.527344 208.335938 143.453125 C 228.101562 161.550781 220.25 196.878906 190.15625 201.355469 "></path></g><g style="fill:#000000;fill-opacity:1;"><g transform="translate(112.875167, 231.555923)"><path style="stroke:none" d="M 1.109375 -15.515625 L 4.859375 -15.515625 L 8.640625 -6.546875 L 12.40625 -15.515625 L 16.171875 -15.515625 L 16.171875 0 L 12.40625 0 L 12.40625 -9.484375 L 9.59375 -2.21875 L 7.703125 -2.21875 L 4.859375 -9.484375 L 4.859375 0 L 1.109375 0 Z M 1.109375 -15.515625 "></path></g></g><g style="fill:#000000;fill-opacity:1;"><g transform="translate(130.337156, 231.555923)"><path style="stroke:none" d="M 4.625 -15.515625 L 10.890625 -15.515625 L 15.296875 0 L 11.40625 0 L 10.546875 -2.9375 L 4.984375 -2.9375 L 4.125 0 L 0.21875 0 Z M 5.90625 -6.09375 L 9.625 -6.09375 L 7.75 -12.515625 Z M 5.90625 -6.09375 "></path></g></g><g style="fill:#000000;fill-opacity:1;"><g transform="translate(146.025048, 231.555923)"><path style="stroke:none" d="M 1.109375 -15.515625 L 11.53125 -15.515625 C 12.15625 -15.515625 12.675781 -15.300781 13.09375 -14.875 C 13.519531 -14.445312 13.734375 -13.921875 13.734375 -13.296875 L 13.734375 -7.421875 C 13.734375 -6.804688 13.519531 -6.28125 13.09375 -5.84375 C 12.675781 -5.414062 12.15625 -5.203125 11.53125 -5.203125 L 11.34375 -5.203125 L 14.9375 0 L 10.34375 0 L 6.765625 -5.203125 L 4.859375 -5.203125 L 4.859375 0 L 1.109375 0 Z M 4.859375 -8.375 L 9.40625 -8.375 C 9.570312 -8.375 9.707031 -8.421875 9.8125 -8.515625 C 9.914062 -8.617188 9.96875 -8.75 9.96875 -8.90625 L 9.96875 -11.796875 C 9.96875 -11.960938 9.914062 -12.09375 9.8125 -12.1875 C 9.707031 -12.289062 9.570312 -12.34375 9.40625 -12.34375 L 4.859375 -12.34375 Z M 4.859375 -8.375 "></path></g></g><g style="fill:#000000;fill-opacity:1;"><g transform="translate(161.274403, 231.555923)"><path style="stroke:none" d="M 4.625 -15.515625 L 10.890625 -15.515625 L 15.296875 0 L 11.40625 0 L 10.546875 -2.9375 L 4.984375 -2.9375 L 4.125 0 L 0.21875 0 Z M 5.90625 -6.09375 L 9.625 -6.09375 L 7.75 -12.515625 Z M 5.90625 -6.09375 "></path></g></g><g style="fill:#000000;fill-opacity:1;"><g transform="translate(175.187407, 231.555923)"><path style="stroke:none" d="M 0.21875 -15.515625 L 12.84375 -15.515625 L 12.84375 -12.34375 L 8.40625 -12.34375 L 8.40625 0 L 4.625 0 L 4.625 -12.34375 L 0.21875 -12.34375 Z M 0.21875 -15.515625 "></path></g></g><g style="fill:#000000;fill-opacity:1;"><g transform="translate(188.443396, 231.555923)"><path style="stroke:none" d="M 1.109375 -15.515625 L 4.859375 -15.515625 L 4.859375 -9.453125 L 9.96875 -9.453125 L 9.96875 -15.515625 L 13.734375 -15.515625 L 13.734375 0 L 9.96875 0 L 9.96875 -6.046875 L 4.859375 -6.046875 L 4.859375 0 L 1.109375 0 Z M 1.109375 -15.515625 "></path></g></g><g style="fill:#000000;fill-opacity:1;"><g transform="translate(203.473481, 231.555923)"><path style="stroke:none" d="M 3.328125 -15.515625 L 11.53125 -15.515625 C 11.925781 -15.515625 12.289062 -15.410156 12.625 -15.203125 C 12.96875 -15.003906 13.238281 -14.734375 13.4375 -14.390625 C 13.632812 -14.054688 13.734375 -13.691406 13.734375 -13.296875 L 13.734375 -2.21875 C 13.734375 -1.8125 13.632812 -1.441406 13.4375 -1.109375 C 13.238281 -0.785156 12.96875 -0.519531 12.625 -0.3125 C 12.289062 -0.101562 11.925781 0 11.53125 0 L 3.328125 0 C 2.929688 0 2.566406 -0.101562 2.234375 -0.3125 C 1.898438 -0.519531 1.628906 -0.785156 1.421875 -1.109375 C 1.210938 -1.441406 1.109375 -1.8125 1.109375 -2.21875 L 1.109375 -13.296875 C 1.109375 -13.691406 1.210938 -14.054688 1.421875 -14.390625 C 1.628906 -14.734375 1.898438 -15.003906 2.234375 -15.203125 C 2.566406 -15.410156 2.929688 -15.515625 3.328125 -15.515625 Z M 5.421875 -12.34375 C 5.265625 -12.34375 5.128906 -12.289062 5.015625 -12.1875 C 4.910156 -12.09375 4.859375 -11.960938 4.859375 -11.796875 L 4.859375 -3.703125 C 4.859375 -3.546875 4.910156 -3.414062 5.015625 -3.3125 C 5.128906 -3.21875 5.265625 -3.171875 5.421875 -3.171875 L 9.40625 -3.171875 C 9.570312 -3.171875 9.707031 -3.21875 9.8125 -3.3125 C 9.914062 -3.414062 9.96875 -3.546875 9.96875 -3.703125 L 9.96875 -11.796875 C 9.96875 -11.960938 9.914062 -12.09375 9.8125 -12.1875 C 9.707031 -12.289062 9.570312 -12.34375 9.40625 -12.34375 Z M 5.421875 -12.34375 "></path></g></g><g style="fill:#000000;fill-opacity:1;"><g transform="translate(218.503566, 231.555923)"><path style="stroke:none" d="M 1.109375 -15.515625 L 4.859375 -15.515625 L 9.96875 -6.5625 L 9.96875 -15.515625 L 13.734375 -15.515625 L 13.734375 0 L 9.96875 0 L 4.859375 -8.953125 L 4.859375 0 L 1.109375 0 Z M 1.109375 -15.515625 "></path></g></g><g style="fill:#000000;fill-opacity:1;"><g transform="translate(233.533651, 231.555923)"><path style="stroke:none" d="M 1.109375 -15.515625 L 12.71875 -15.515625 L 12.71875 -12.34375 L 4.859375 -12.34375 L 4.859375 -9.34375 L 10.5 -9.34375 L 10.5 -6.15625 L 4.859375 -6.15625 L 4.859375 -3.171875 L 12.71875 -3.171875 L 12.71875 0 L 1.109375 0 Z M 1.109375 -15.515625 "></path></g></g><g style="fill:#000000;fill-opacity:1;"><g transform="translate(247.048779, 231.555923)"><path style="stroke:none" d="M 1.109375 -15.515625 L 11.53125 -15.515625 C 12.15625 -15.515625 12.675781 -15.300781 13.09375 -14.875 C 13.519531 -14.445312 13.734375 -13.921875 13.734375 -13.296875 L 13.734375 -7.421875 C 13.734375 -6.804688 13.519531 -6.28125 13.09375 -5.84375 C 12.675781 -5.414062 12.15625 -5.203125 11.53125 -5.203125 L 11.34375 -5.203125 L 14.9375 0 L 10.34375 0 L 6.765625 -5.203125 L 4.859375 -5.203125 L 4.859375 0 L 1.109375 0 Z M 4.859375 -8.375 L 9.40625 -8.375 C 9.570312 -8.375 9.707031 -8.421875 9.8125 -8.515625 C 9.914062 -8.617188 9.96875 -8.75 9.96875 -8.90625 L 9.96875 -11.796875 C 9.96875 -11.960938 9.914062 -12.09375 9.8125 -12.1875 C 9.707031 -12.289062 9.570312 -12.34375 9.40625 -12.34375 L 4.859375 -12.34375 Z M 4.859375 -8.375 "></path></g></g><g style="fill:#000000;fill-opacity:1;"><g transform="translate(104.995618, 197.549987)"><path style="stroke:none" d="M 3.703125 -8.40625 L 3.703125 0 L 1.765625 0 L 1.765625 -6.84375 L 0.078125 -6.84375 L 0.078125 -8.40625 Z M 3.703125 -8.40625 "></path></g></g><g style="fill:#000000;fill-opacity:1;"><g transform="translate(109.699631, 197.549987)"><path style="stroke:none" d="M 3.421875 -8.546875 C 4.597656 -8.546875 5.515625 -8.1875 6.171875 -7.46875 C 6.835938 -6.75 7.171875 -5.71875 7.171875 -4.375 C 7.171875 -3.425781 6.992188 -2.609375 6.640625 -1.921875 C 6.285156 -1.242188 5.78125 -0.726562 5.125 -0.375 C 4.476562 -0.03125 3.734375 0.140625 2.890625 0.140625 C 2.441406 0.140625 2.015625 0.09375 1.609375 0 C 1.203125 -0.101562 0.851562 -0.25 0.5625 -0.4375 L 1.28125 -1.859375 C 1.6875 -1.578125 2.210938 -1.4375 2.859375 -1.4375 C 3.566406 -1.4375 4.128906 -1.644531 4.546875 -2.0625 C 4.960938 -2.488281 5.1875 -3.097656 5.21875 -3.890625 C 4.71875 -3.378906 4.019531 -3.125 3.125 -3.125 C 2.59375 -3.125 2.109375 -3.234375 1.671875 -3.453125 C 1.234375 -3.671875 0.882812 -3.976562 0.625 -4.375 C 0.363281 -4.769531 0.234375 -5.226562 0.234375 -5.75 C 0.234375 -6.3125 0.375 -6.800781 0.65625 -7.21875 C 0.9375 -7.644531 1.316406 -7.972656 1.796875 -8.203125 C 2.285156 -8.429688 2.828125 -8.546875 3.421875 -8.546875 Z M 3.5625 -4.578125 C 3.988281 -4.578125 4.332031 -4.695312 4.59375 -4.9375 C 4.863281 -5.175781 5 -5.476562 5 -5.84375 C 5 -6.207031 4.867188 -6.503906 4.609375 -6.734375 C 4.347656 -6.972656 3.992188 -7.09375 3.546875 -7.09375 C 3.128906 -7.09375 2.789062 -6.976562 2.53125 -6.75 C 2.269531 -6.53125 2.140625 -6.226562 2.140625 -5.84375 C 2.140625 -5.457031 2.269531 -5.148438 2.53125 -4.921875 C 2.789062 -4.691406 3.132812 -4.578125 3.5625 -4.578125 Z M 3.5625 -4.578125 "></path></g></g><g style="fill:#000000;fill-opacity:1;"><g transform="translate(254.419881, 197.549987)"><path style="stroke:none" d="M 3.421875 -8.546875 C 4.597656 -8.546875 5.515625 -8.1875 6.171875 -7.46875 C 6.835938 -6.75 7.171875 -5.71875 7.171875 -4.375 C 7.171875 -3.425781 6.992188 -2.609375 6.640625 -1.921875 C 6.285156 -1.242188 5.78125 -0.726562 5.125 -0.375 C 4.476562 -0.03125 3.734375 0.140625 2.890625 0.140625 C 2.441406 0.140625 2.015625 0.09375 1.609375 0 C 1.203125 -0.101562 0.851562 -0.25 0.5625 -0.4375 L 1.28125 -1.859375 C 1.6875 -1.578125 2.210938 -1.4375 2.859375 -1.4375 C 3.566406 -1.4375 4.128906 -1.644531 4.546875 -2.0625 C 4.960938 -2.488281 5.1875 -3.097656 5.21875 -3.890625 C 4.71875 -3.378906 4.019531 -3.125 3.125 -3.125 C 2.59375 -3.125 2.109375 -3.234375 1.671875 -3.453125 C 1.234375 -3.671875 0.882812 -3.976562 0.625 -4.375 C 0.363281 -4.769531 0.234375 -5.226562 0.234375 -5.75 C 0.234375 -6.3125 0.375 -6.800781 0.65625 -7.21875 C 0.9375 -7.644531 1.316406 -7.972656 1.796875 -8.203125 C 2.285156 -8.429688 2.828125 -8.546875 3.421875 -8.546875 Z M 3.5625 -4.578125 C 3.988281 -4.578125 4.332031 -4.695312 4.59375 -4.9375 C 4.863281 -5.175781 5 -5.476562 5 -5.84375 C 5 -6.207031 4.867188 -6.503906 4.609375 -6.734375 C 4.347656 -6.972656 3.992188 -7.09375 3.546875 -7.09375 C 3.128906 -7.09375 2.789062 -6.976562 2.53125 -6.75 C 2.269531 -6.53125 2.140625 -6.226562 2.140625 -5.84375 C 2.140625 -5.457031 2.269531 -5.148438 2.53125 -4.921875 C 2.789062 -4.691406 3.132812 -4.578125 3.5625 -4.578125 Z M 3.5625 -4.578125 "></path></g></g><g style="fill:#000000;fill-opacity:1;"><g transform="translate(262.063893, 197.549987)"><path style="stroke:none" d="M 6.21875 -4.421875 C 6.632812 -4.210938 6.953125 -3.9375 7.171875 -3.59375 C 7.390625 -3.257812 7.5 -2.875 7.5 -2.4375 C 7.5 -1.914062 7.347656 -1.457031 7.046875 -1.0625 C 6.753906 -0.675781 6.335938 -0.378906 5.796875 -0.171875 C 5.265625 0.0351562 4.648438 0.140625 3.953125 0.140625 C 3.242188 0.140625 2.625 0.0351562 2.09375 -0.171875 C 1.5625 -0.378906 1.148438 -0.675781 0.859375 -1.0625 C 0.566406 -1.457031 0.421875 -1.914062 0.421875 -2.4375 C 0.421875 -2.875 0.53125 -3.257812 0.75 -3.59375 C 0.96875 -3.9375 1.28125 -4.210938 1.6875 -4.421875 C 1.375 -4.609375 1.132812 -4.847656 0.96875 -5.140625 C 0.800781 -5.429688 0.71875 -5.765625 0.71875 -6.140625 C 0.71875 -6.628906 0.851562 -7.050781 1.125 -7.40625 C 1.394531 -7.769531 1.773438 -8.050781 2.265625 -8.25 C 2.753906 -8.445312 3.316406 -8.546875 3.953125 -8.546875 C 4.585938 -8.546875 5.148438 -8.445312 5.640625 -8.25 C 6.140625 -8.050781 6.523438 -7.769531 6.796875 -7.40625 C 7.066406 -7.050781 7.203125 -6.628906 7.203125 -6.140625 C 7.203125 -5.765625 7.117188 -5.429688 6.953125 -5.140625 C 6.785156 -4.847656 6.539062 -4.609375 6.21875 -4.421875 Z M 3.953125 -7.109375 C 3.554688 -7.109375 3.238281 -7.015625 3 -6.828125 C 2.769531 -6.640625 2.65625 -6.382812 2.65625 -6.0625 C 2.65625 -5.738281 2.769531 -5.484375 3 -5.296875 C 3.226562 -5.117188 3.546875 -5.03125 3.953125 -5.03125 C 4.347656 -5.03125 4.664062 -5.117188 4.90625 -5.296875 C 5.144531 -5.484375 5.265625 -5.738281 5.265625 -6.0625 C 5.265625 -6.382812 5.144531 -6.640625 4.90625 -6.828125 C 4.664062 -7.015625 4.347656 -7.109375 3.953125 -7.109375 Z M 3.953125 -1.28125 C 4.441406 -1.28125 4.828125 -1.390625 5.109375 -1.609375 C 5.390625 -1.828125 5.53125 -2.125 5.53125 -2.5 C 5.53125 -2.863281 5.390625 -3.15625 5.109375 -3.375 C 4.828125 -3.59375 4.441406 -3.703125 3.953125 -3.703125 C 3.472656 -3.703125 3.09375 -3.59375 2.8125 -3.375 C 2.53125 -3.15625 2.390625 -2.863281 2.390625 -2.5 C 2.390625 -2.125 2.53125 -1.828125 2.8125 -1.609375 C 3.09375 -1.390625 3.472656 -1.28125 3.953125 -1.28125 Z M 3.953125 -1.28125 "></path></g></g><g style="fill:#000000;fill-opacity:1;"><g transform="translate(133.430431, 247.908147)"><path style="stroke:none" d="M 6.265625 -1.734375 L 2.53125 -1.734375 L 1.8125 0 L -0.109375 0 L 3.5 -8.078125 L 5.34375 -8.078125 L 8.953125 0 L 6.984375 0 Z M 5.6875 -3.140625 L 4.40625 -6.234375 L 3.125 -3.140625 Z M 5.6875 -3.140625 "></path></g></g><g style="fill:#000000;fill-opacity:1;"><g transform="translate(143.003905, 247.908147)"><path style="stroke:none" d="M 7.234375 -6.203125 L 7.234375 -1.03125 C 7.234375 0.101562 6.9375 0.945312 6.34375 1.5 C 5.75 2.050781 4.882812 2.328125 3.75 2.328125 C 3.144531 2.328125 2.570312 2.253906 2.03125 2.109375 C 1.5 1.960938 1.054688 1.75 0.703125 1.46875 L 1.421875 0.1875 C 1.679688 0.394531 2.007812 0.5625 2.40625 0.6875 C 2.8125 0.820312 3.210938 0.890625 3.609375 0.890625 C 4.234375 0.890625 4.691406 0.75 4.984375 0.46875 C 5.285156 0.1875 5.4375 -0.238281 5.4375 -0.8125 L 5.4375 -1.078125 C 4.96875 -0.554688 4.3125 -0.296875 3.46875 -0.296875 C 2.90625 -0.296875 2.382812 -0.421875 1.90625 -0.671875 C 1.4375 -0.921875 1.0625 -1.269531 0.78125 -1.71875 C 0.507812 -2.175781 0.375 -2.703125 0.375 -3.296875 C 0.375 -3.890625 0.507812 -4.410156 0.78125 -4.859375 C 1.0625 -5.316406 1.4375 -5.671875 1.90625 -5.921875 C 2.382812 -6.171875 2.90625 -6.296875 3.46875 -6.296875 C 4.363281 -6.296875 5.050781 -6 5.53125 -5.40625 L 5.53125 -6.203125 Z M 3.828125 -1.78125 C 4.304688 -1.78125 4.695312 -1.921875 5 -2.203125 C 5.300781 -2.484375 5.453125 -2.847656 5.453125 -3.296875 C 5.453125 -3.753906 5.300781 -4.117188 5 -4.390625 C 4.695312 -4.671875 4.304688 -4.8125 3.828125 -4.8125 C 3.347656 -4.8125 2.953125 -4.671875 2.640625 -4.390625 C 2.335938 -4.117188 2.1875 -3.753906 2.1875 -3.296875 C 2.1875 -2.847656 2.335938 -2.484375 2.640625 -2.203125 C 2.953125 -1.921875 3.347656 -1.78125 3.828125 -1.78125 Z M 3.828125 -1.78125 "></path></g></g><g style="fill:#000000;fill-opacity:1;"><g transform="translate(151.874723, 247.908147)"><path style="stroke:none" d="M 6.90625 -3.078125 C 6.90625 -3.054688 6.894531 -2.894531 6.875 -2.59375 L 2.171875 -2.59375 C 2.265625 -2.207031 2.46875 -1.898438 2.78125 -1.671875 C 3.09375 -1.453125 3.484375 -1.34375 3.953125 -1.34375 C 4.273438 -1.34375 4.5625 -1.390625 4.8125 -1.484375 C 5.0625 -1.585938 5.296875 -1.742188 5.515625 -1.953125 L 6.46875 -0.90625 C 5.882812 -0.238281 5.03125 0.09375 3.90625 0.09375 C 3.207031 0.09375 2.585938 -0.0390625 2.046875 -0.3125 C 1.515625 -0.582031 1.101562 -0.957031 0.8125 -1.4375 C 0.519531 -1.925781 0.375 -2.484375 0.375 -3.109375 C 0.375 -3.710938 0.515625 -4.257812 0.796875 -4.75 C 1.085938 -5.238281 1.484375 -5.617188 1.984375 -5.890625 C 2.492188 -6.160156 3.054688 -6.296875 3.671875 -6.296875 C 4.285156 -6.296875 4.835938 -6.164062 5.328125 -5.90625 C 5.816406 -5.644531 6.203125 -5.269531 6.484375 -4.78125 C 6.765625 -4.289062 6.90625 -3.722656 6.90625 -3.078125 Z M 3.6875 -4.9375 C 3.28125 -4.9375 2.9375 -4.820312 2.65625 -4.59375 C 2.382812 -4.363281 2.21875 -4.046875 2.15625 -3.640625 L 5.21875 -3.640625 C 5.15625 -4.035156 4.984375 -4.347656 4.703125 -4.578125 C 4.429688 -4.816406 4.09375 -4.9375 3.6875 -4.9375 Z M 3.6875 -4.9375 "></path></g></g><g style="fill:#000000;fill-opacity:1;"><g transform="translate(159.950692, 247.908147)"><path style="stroke:none" d="M 4.59375 -6.296875 C 5.363281 -6.296875 5.984375 -6.0625 6.453125 -5.59375 C 6.929688 -5.132812 7.171875 -4.453125 7.171875 -3.546875 L 7.171875 0 L 5.375 0 L 5.375 -3.28125 C 5.375 -3.769531 5.265625 -4.132812 5.046875 -4.375 C 4.835938 -4.613281 4.523438 -4.734375 4.109375 -4.734375 C 3.660156 -4.734375 3.300781 -4.59375 3.03125 -4.3125 C 2.757812 -4.03125 2.625 -3.613281 2.625 -3.0625 L 2.625 0 L 0.828125 0 L 0.828125 -6.203125 L 2.546875 -6.203125 L 2.546875 -5.484375 C 2.785156 -5.742188 3.082031 -5.941406 3.4375 -6.078125 C 3.789062 -6.222656 4.175781 -6.296875 4.59375 -6.296875 Z M 4.59375 -6.296875 "></path></g></g><g style="fill:#000000;fill-opacity:1;"><g transform="translate(168.717828, 247.908147)"><path style="stroke:none" d="M 4.828125 -0.296875 C 4.648438 -0.171875 4.429688 -0.0703125 4.171875 0 C 3.921875 0.0625 3.648438 0.09375 3.359375 0.09375 C 2.628906 0.09375 2.0625 -0.09375 1.65625 -0.46875 C 1.25 -0.84375 1.046875 -1.398438 1.046875 -2.140625 L 1.046875 -4.6875 L 0.09375 -4.6875 L 0.09375 -6.0625 L 1.046875 -6.0625 L 1.046875 -7.578125 L 2.84375 -7.578125 L 2.84375 -6.0625 L 4.390625 -6.0625 L 4.390625 -4.6875 L 2.84375 -4.6875 L 2.84375 -2.15625 C 2.84375 -1.894531 2.910156 -1.691406 3.046875 -1.546875 C 3.179688 -1.410156 3.375 -1.34375 3.625 -1.34375 C 3.90625 -1.34375 4.144531 -1.414062 4.34375 -1.5625 Z M 4.828125 -0.296875 "></path></g></g><g style="fill:#000000;fill-opacity:1;"><g transform="translate(174.420681, 247.908147)"><path style="stroke:none" d="M 0.59375 -3.96875 L 3.859375 -3.96875 L 3.859375 -2.53125 L 0.59375 -2.53125 Z M 0.59375 -3.96875 "></path></g></g><g style="fill:#000000;fill-opacity:1;"><g transform="translate(179.674355, 247.908147)"><path style="stroke:none" d="M 8.296875 0 L 8.296875 -4.84375 L 5.921875 -0.859375 L 5.078125 -0.859375 L 2.703125 -4.734375 L 2.703125 0 L 0.953125 0 L 0.953125 -8.078125 L 2.5 -8.078125 L 5.53125 -3.0625 L 8.5 -8.078125 L 10.03125 -8.078125 L 10.0625 0 Z M 8.296875 0 "></path></g></g><g style="fill:#000000;fill-opacity:1;"><g transform="translate(191.482654, 247.908147)"><path style="stroke:none" d="M 6.90625 -3.078125 C 6.90625 -3.054688 6.894531 -2.894531 6.875 -2.59375 L 2.171875 -2.59375 C 2.265625 -2.207031 2.46875 -1.898438 2.78125 -1.671875 C 3.09375 -1.453125 3.484375 -1.34375 3.953125 -1.34375 C 4.273438 -1.34375 4.5625 -1.390625 4.8125 -1.484375 C 5.0625 -1.585938 5.296875 -1.742188 5.515625 -1.953125 L 6.46875 -0.90625 C 5.882812 -0.238281 5.03125 0.09375 3.90625 0.09375 C 3.207031 0.09375 2.585938 -0.0390625 2.046875 -0.3125 C 1.515625 -0.582031 1.101562 -0.957031 0.8125 -1.4375 C 0.519531 -1.925781 0.375 -2.484375 0.375 -3.109375 C 0.375 -3.710938 0.515625 -4.257812 0.796875 -4.75 C 1.085938 -5.238281 1.484375 -5.617188 1.984375 -5.890625 C 2.492188 -6.160156 3.054688 -6.296875 3.671875 -6.296875 C 4.285156 -6.296875 4.835938 -6.164062 5.328125 -5.90625 C 5.816406 -5.644531 6.203125 -5.269531 6.484375 -4.78125 C 6.765625 -4.289062 6.90625 -3.722656 6.90625 -3.078125 Z M 3.6875 -4.9375 C 3.28125 -4.9375 2.9375 -4.820312 2.65625 -4.59375 C 2.382812 -4.363281 2.21875 -4.046875 2.15625 -3.640625 L 5.21875 -3.640625 C 5.15625 -4.035156 4.984375 -4.347656 4.703125 -4.578125 C 4.429688 -4.816406 4.09375 -4.9375 3.6875 -4.9375 Z M 3.6875 -4.9375 "></path></g></g><g style="fill:#000000;fill-opacity:1;"><g transform="translate(199.558623, 247.908147)"><path style="stroke:none" d="M 6.90625 -3.078125 C 6.90625 -3.054688 6.894531 -2.894531 6.875 -2.59375 L 2.171875 -2.59375 C 2.265625 -2.207031 2.46875 -1.898438 2.78125 -1.671875 C 3.09375 -1.453125 3.484375 -1.34375 3.953125 -1.34375 C 4.273438 -1.34375 4.5625 -1.390625 4.8125 -1.484375 C 5.0625 -1.585938 5.296875 -1.742188 5.515625 -1.953125 L 6.46875 -0.90625 C 5.882812 -0.238281 5.03125 0.09375 3.90625 0.09375 C 3.207031 0.09375 2.585938 -0.0390625 2.046875 -0.3125 C 1.515625 -0.582031 1.101562 -0.957031 0.8125 -1.4375 C 0.519531 -1.925781 0.375 -2.484375 0.375 -3.109375 C 0.375 -3.710938 0.515625 -4.257812 0.796875 -4.75 C 1.085938 -5.238281 1.484375 -5.617188 1.984375 -5.890625 C 2.492188 -6.160156 3.054688 -6.296875 3.671875 -6.296875 C 4.285156 -6.296875 4.835938 -6.164062 5.328125 -5.90625 C 5.816406 -5.644531 6.203125 -5.269531 6.484375 -4.78125 C 6.765625 -4.289062 6.90625 -3.722656 6.90625 -3.078125 Z M 3.6875 -4.9375 C 3.28125 -4.9375 2.9375 -4.820312 2.65625 -4.59375 C 2.382812 -4.363281 2.21875 -4.046875 2.15625 -3.640625 L 5.21875 -3.640625 C 5.15625 -4.035156 4.984375 -4.347656 4.703125 -4.578125 C 4.429688 -4.816406 4.09375 -4.9375 3.6875 -4.9375 Z M 3.6875 -4.9375 "></path></g></g><g style="fill:#000000;fill-opacity:1;"><g transform="translate(207.634592, 247.908147)"><path style="stroke:none" d="M 4.828125 -0.296875 C 4.648438 -0.171875 4.429688 -0.0703125 4.171875 0 C 3.921875 0.0625 3.648438 0.09375 3.359375 0.09375 C 2.628906 0.09375 2.0625 -0.09375 1.65625 -0.46875 C 1.25 -0.84375 1.046875 -1.398438 1.046875 -2.140625 L 1.046875 -4.6875 L 0.09375 -4.6875 L 0.09375 -6.0625 L 1.046875 -6.0625 L 1.046875 -7.578125 L 2.84375 -7.578125 L 2.84375 -6.0625 L 4.390625 -6.0625 L 4.390625 -4.6875 L 2.84375 -4.6875 L 2.84375 -2.15625 C 2.84375 -1.894531 2.910156 -1.691406 3.046875 -1.546875 C 3.179688 -1.410156 3.375 -1.34375 3.625 -1.34375 C 3.90625 -1.34375 4.144531 -1.414062 4.34375 -1.5625 Z M 4.828125 -0.296875 "></path></g></g><g style="fill:#000000;fill-opacity:1;"><g transform="translate(213.452722, 247.908147)"><path style="stroke:none" d="M 0.828125 -6.203125 L 2.625 -6.203125 L 2.625 0 L 0.828125 0 Z M 1.734375 -7.0625 C 1.398438 -7.0625 1.128906 -7.15625 0.921875 -7.34375 C 0.710938 -7.539062 0.609375 -7.785156 0.609375 -8.078125 C 0.609375 -8.359375 0.710938 -8.59375 0.921875 -8.78125 C 1.128906 -8.976562 1.398438 -9.078125 1.734375 -9.078125 C 2.054688 -9.078125 2.320312 -8.984375 2.53125 -8.796875 C 2.738281 -8.609375 2.84375 -8.378906 2.84375 -8.109375 C 2.84375 -7.804688 2.738281 -7.554688 2.53125 -7.359375 C 2.320312 -7.160156 2.054688 -7.0625 1.734375 -7.0625 Z M 1.734375 -7.0625 "></path></g></g><g style="fill:#000000;fill-opacity:1;"><g transform="translate(217.727239, 247.908147)"><path style="stroke:none" d="M 4.59375 -6.296875 C 5.363281 -6.296875 5.984375 -6.0625 6.453125 -5.59375 C 6.929688 -5.132812 7.171875 -4.453125 7.171875 -3.546875 L 7.171875 0 L 5.375 0 L 5.375 -3.28125 C 5.375 -3.769531 5.265625 -4.132812 5.046875 -4.375 C 4.835938 -4.613281 4.523438 -4.734375 4.109375 -4.734375 C 3.660156 -4.734375 3.300781 -4.59375 3.03125 -4.3125 C 2.757812 -4.03125 2.625 -3.613281 2.625 -3.0625 L 2.625 0 L 0.828125 0 L 0.828125 -6.203125 L 2.546875 -6.203125 L 2.546875 -5.484375 C 2.785156 -5.742188 3.082031 -5.941406 3.4375 -6.078125 C 3.789062 -6.222656 4.175781 -6.296875 4.59375 -6.296875 Z M 4.59375 -6.296875 "></path></g></g><g style="fill:#000000;fill-opacity:1;"><g transform="translate(226.563542, 247.908147)"><path style="stroke:none" d="M 7.234375 -6.203125 L 7.234375 -1.03125 C 7.234375 0.101562 6.9375 0.945312 6.34375 1.5 C 5.75 2.050781 4.882812 2.328125 3.75 2.328125 C 3.144531 2.328125 2.570312 2.253906 2.03125 2.109375 C 1.5 1.960938 1.054688 1.75 0.703125 1.46875 L 1.421875 0.1875 C 1.679688 0.394531 2.007812 0.5625 2.40625 0.6875 C 2.8125 0.820312 3.210938 0.890625 3.609375 0.890625 C 4.234375 0.890625 4.691406 0.75 4.984375 0.46875 C 5.285156 0.1875 5.4375 -0.238281 5.4375 -0.8125 L 5.4375 -1.078125 C 4.96875 -0.554688 4.3125 -0.296875 3.46875 -0.296875 C 2.90625 -0.296875 2.382812 -0.421875 1.90625 -0.671875 C 1.4375 -0.921875 1.0625 -1.269531 0.78125 -1.71875 C 0.507812 -2.175781 0.375 -2.703125 0.375 -3.296875 C 0.375 -3.890625 0.507812 -4.410156 0.78125 -4.859375 C 1.0625 -5.316406 1.4375 -5.671875 1.90625 -5.921875 C 2.382812 -6.171875 2.90625 -6.296875 3.46875 -6.296875 C 4.363281 -6.296875 5.050781 -6 5.53125 -5.40625 L 5.53125 -6.203125 Z M 3.828125 -1.78125 C 4.304688 -1.78125 4.695312 -1.921875 5 -2.203125 C 5.300781 -2.484375 5.453125 -2.847656 5.453125 -3.296875 C 5.453125 -3.753906 5.300781 -4.117188 5 -4.390625 C 4.695312 -4.671875 4.304688 -4.8125 3.828125 -4.8125 C 3.347656 -4.8125 2.953125 -4.671875 2.640625 -4.390625 C 2.335938 -4.117188 2.1875 -3.753906 2.1875 -3.296875 C 2.1875 -2.847656 2.335938 -2.484375 2.640625 -2.203125 C 2.953125 -1.921875 3.347656 -1.78125 3.828125 -1.78125 Z M 3.828125 -1.78125 "></path></g></g><g style="fill:#000000;fill-opacity:1;"><g transform="translate(235.434361, 247.908147)"><path style="stroke:none" d="M 2.921875 0.09375 C 2.398438 0.09375 1.894531 0.03125 1.40625 -0.09375 C 0.914062 -0.21875 0.523438 -0.378906 0.234375 -0.578125 L 0.828125 -1.875 C 1.109375 -1.695312 1.441406 -1.550781 1.828125 -1.4375 C 2.222656 -1.320312 2.609375 -1.265625 2.984375 -1.265625 C 3.742188 -1.265625 4.125 -1.453125 4.125 -1.828125 C 4.125 -2.003906 4.019531 -2.128906 3.8125 -2.203125 C 3.601562 -2.285156 3.285156 -2.351562 2.859375 -2.40625 C 2.347656 -2.488281 1.925781 -2.578125 1.59375 -2.671875 C 1.269531 -2.773438 0.984375 -2.953125 0.734375 -3.203125 C 0.492188 -3.460938 0.375 -3.828125 0.375 -4.296875 C 0.375 -4.679688 0.488281 -5.023438 0.71875 -5.328125 C 0.945312 -5.628906 1.273438 -5.863281 1.703125 -6.03125 C 2.140625 -6.207031 2.65625 -6.296875 3.25 -6.296875 C 3.6875 -6.296875 4.125 -6.25 4.5625 -6.15625 C 5 -6.0625 5.359375 -5.925781 5.640625 -5.75 L 5.046875 -4.46875 C 4.492188 -4.78125 3.894531 -4.9375 3.25 -4.9375 C 2.863281 -4.9375 2.570312 -4.878906 2.375 -4.765625 C 2.1875 -4.660156 2.09375 -4.523438 2.09375 -4.359375 C 2.09375 -4.171875 2.195312 -4.035156 2.40625 -3.953125 C 2.613281 -3.878906 2.945312 -3.804688 3.40625 -3.734375 C 3.90625 -3.648438 4.316406 -3.5625 4.640625 -3.46875 C 4.960938 -3.375 5.242188 -3.195312 5.484375 -2.9375 C 5.722656 -2.6875 5.84375 -2.332031 5.84375 -1.875 C 5.84375 -1.488281 5.726562 -1.144531 5.5 -0.84375 C 5.269531 -0.550781 4.929688 -0.320312 4.484375 -0.15625 C 4.046875 0.0078125 3.523438 0.09375 2.921875 0.09375 Z M 2.921875 0.09375 "></path></g></g></g></svg>