<svg xmlns="http://www.w3.org/2000/svg" xmlns:xlink="http://www.w3.org/1999/xlink" zoomAndPan="magnify" preserveAspectRatio="xMidYMid meet" version="1.2" viewBox="82.09 57.95 210.53 258.74"><defs><clipPath id="2caa7bb0e1"><path d="M 82.078125 57.949219 L 292.828125 57.949219 L 292.828125 316.699219 L 82.078125 316.699219 Z M 82.078125 57.949219 "></path></clipPath><clipPath id="32dc65e915"><path d="M 178.0625 266.53125 L 196.8125 266.53125 L 196.8125 284.53125 L 178.0625 284.53125 Z M 178.0625 266.53125 "></path></clipPath><clipPath id="1d56ae584a"><path d="M 201.882812 270.1875 L 213 270.1875 L 213 280.6875 L 201.882812 280.6875 Z M 201.882812 270.1875 "></path></clipPath><clipPath id="4b5b91386a"><path d="M 161.910156 270.1875 L 173 270.1875 L 173 280.6875 L 161.910156 280.6875 Z M 161.910156 270.1875 "></path></clipPath><clipPath id="15f23ddd3f"><path d="M 232.75 79.160156 L 244 79.160156 L 244 89.660156 L 232.75 89.660156 Z M 232.75 79.160156 "></path></clipPath><clipPath id="799dff6ecd"><path d="M 131.046875 79.160156 L 142.296875 79.160156 L 142.296875 89.660156 L 131.046875 89.660156 Z M 131.046875 79.160156 "></path></clipPath><clipPath id="99eb42c938"><path d="M 185 105.074219 L 188 105.074219 L 188 121 L 185 121 Z M 185 105.074219 "></path></clipPath><clipPath id="54f5714acc"><path d="M 140.875 150 L 156 150 L 156 154 L 140.875 154 Z M 140.875 150 "></path></clipPath><clipPath id="2f368c9bd4"><path d="M 185 183 L 188 183 L 188 198.824219 L 185 198.824219 Z M 185 183 "></path></clipPath><clipPath id="b5a2946e54"><path d="M 217 150 L 232.375 150 L 232.375 154 L 217 154 Z M 217 150 "></path></clipPath></defs><g id="35e3a81925"><g clip-rule="nonzero" clip-path="url(#2caa7bb0e1)"><path style=" stroke:none;fill-rule:nonzero;fill:#052222;fill-opacity:1;" d="M 265.871094 81.121094 C 261.023438 70.339844 264.625 60.171875 265.472656 57.945312 C 239.433594 58.171875 213.390625 58.394531 187.351562 58.617188 C 161.3125 58.394531 135.273438 58.171875 109.230469 57.945312 C 110.078125 60.171875 113.683594 70.339844 108.832031 81.121094 C 104.257812 91.300781 93.914062 98.101562 82.085938 98.863281 C 82.347656 145.964844 82.613281 193.0625 82.878906 240.160156 C 90.207031 251.886719 102.050781 267.773438 120.222656 282.667969 C 145.859375 303.679688 187.335938 316.691406 187.351562 316.6875 C 187.367188 316.691406 228.84375 303.679688 254.480469 282.667969 C 272.652344 267.773438 284.492188 251.886719 291.824219 240.160156 C 292.089844 193.0625 292.355469 145.964844 292.617188 98.863281 C 280.789062 98.101562 270.445312 91.300781 265.871094 81.121094 Z M 265.871094 81.121094 "></path></g><path style=" stroke:none;fill-rule:nonzero;fill:#b6f947;fill-opacity:1;" d="M 187.359375 302.589844 L 186.640625 302.335938 C 182.347656 300.820312 175.605469 298.304688 167.871094 294.925781 C 151.613281 287.820312 138.066406 280.007812 128.699219 272.328125 C 116.300781 262.167969 105.496094 250.195312 96.582031 236.75 L 96.226562 236.210938 L 95.515625 109.691406 L 96.902344 109.15625 C 107.816406 104.941406 116.382812 96.933594 121.027344 86.605469 C 122.902344 82.433594 124.070312 77.996094 124.496094 73.421875 L 124.679688 71.449219 L 187.351562 71.988281 L 250.027344 71.449219 L 250.210938 73.421875 C 250.632812 77.996094 251.800781 82.433594 253.675781 86.601562 C 258.320312 96.933594 266.890625 104.941406 277.800781 109.15625 L 279.1875 109.691406 L 278.476562 236.210938 L 278.121094 236.746094 C 269.210938 250.195312 258.40625 262.164062 246.007812 272.328125 C 236.632812 280.011719 223.074219 287.828125 206.800781 294.9375 C 199.003906 298.347656 192.3125 300.84375 188.074219 302.335938 Z M 100.53125 234.898438 C 109.136719 247.769531 119.53125 259.238281 131.429688 268.992188 C 140.5 276.421875 153.695312 284.023438 169.597656 290.972656 C 176.792969 294.121094 183.117188 296.503906 187.359375 298.015625 C 191.546875 296.523438 197.824219 294.15625 205.074219 290.988281 C 220.992188 284.035156 234.199219 276.429688 243.273438 268.992188 C 255.175781 259.238281 265.566406 247.769531 274.171875 234.898438 L 274.859375 112.617188 C 269.527344 110.378906 264.714844 107.277344 260.539062 103.394531 C 255.929688 99.109375 252.300781 94.054688 249.742188 88.371094 C 247.945312 84.367188 246.734375 80.144531 246.140625 75.792969 L 187.351562 76.300781 L 187.332031 76.300781 C 187.332031 76.300781 128.5625 75.792969 128.5625 75.792969 C 127.96875 80.144531 126.761719 84.367188 124.960938 88.371094 C 122.40625 94.054688 118.773438 99.109375 114.167969 103.394531 C 109.988281 107.277344 105.175781 110.378906 99.84375 112.617188 Z M 100.53125 234.898438 "></path><g clip-rule="nonzero" clip-path="url(#32dc65e915)"><path style=" stroke:none;fill-rule:nonzero;fill:#ffffff;fill-opacity:1;" d="M 187.4375 280.273438 L 193.230469 284.488281 L 191.011719 277.679688 L 196.804688 273.558594 L 189.699219 273.558594 L 187.4375 266.53125 L 185.171875 273.558594 L 178.066406 273.558594 L 183.859375 277.679688 L 181.652344 284.488281 Z M 187.4375 280.273438 "></path></g><g clip-rule="nonzero" clip-path="url(#1d56ae584a)"><path style=" stroke:none;fill-rule:nonzero;fill:#ffffff;fill-opacity:1;" d="M 207.363281 278.222656 L 210.75 280.6875 L 209.453125 276.707031 L 212.839844 274.296875 L 208.6875 274.296875 L 207.363281 270.1875 L 206.039062 274.296875 L 201.886719 274.296875 L 205.273438 276.707031 L 203.980469 280.6875 Z M 207.363281 278.222656 "></path></g><g clip-rule="nonzero" clip-path="url(#4b5b91386a)"><path style=" stroke:none;fill-rule:nonzero;fill:#ffffff;fill-opacity:1;" d="M 167.390625 278.222656 L 170.777344 280.6875 L 169.480469 276.707031 L 172.867188 274.296875 L 168.714844 274.296875 L 167.390625 270.1875 L 166.066406 274.296875 L 161.914062 274.296875 L 165.300781 276.707031 L 164.007812 280.6875 Z M 167.390625 278.222656 "></path></g><g clip-rule="nonzero" clip-path="url(#15f23ddd3f)"><path style=" stroke:none;fill-rule:nonzero;fill:#ffffff;fill-opacity:1;" d="M 238.230469 87.195312 L 241.617188 89.660156 L 240.320312 85.679688 L 243.707031 83.269531 L 239.554688 83.269531 L 238.230469 79.160156 L 236.90625 83.269531 L 232.75 83.269531 L 236.136719 85.679688 L 234.847656 89.660156 Z M 238.230469 87.195312 "></path></g><g clip-rule="nonzero" clip-path="url(#799dff6ecd)"><path style=" stroke:none;fill-rule:nonzero;fill:#ffffff;fill-opacity:1;" d="M 136.523438 87.195312 L 139.914062 89.660156 L 138.617188 85.679688 L 142.003906 83.269531 L 137.847656 83.269531 L 136.523438 79.160156 L 135.199219 83.269531 L 131.046875 83.269531 L 134.433594 85.679688 L 133.140625 89.660156 Z M 136.523438 87.195312 "></path></g><g clip-rule="nonzero" clip-path="url(#99eb42c938)"><path style=" stroke:none;fill-rule:nonzero;fill:#ffffff;fill-opacity:1;" d="M 186.472656 120.082031 C 185.714844 120.082031 185.105469 119.46875 185.105469 118.714844 L 185.109375 106.441406 C 185.109375 105.6875 185.71875 105.078125 186.472656 105.078125 C 187.226562 105.078125 187.839844 105.691406 187.839844 106.441406 L 187.835938 118.714844 C 187.835938 119.46875 187.222656 120.082031 186.472656 120.082031 "></path></g><path style=" stroke:none;fill-rule:nonzero;fill:#ffffff;fill-opacity:1;" d="M 169.089844 121.777344 C 168.855469 121.777344 168.621094 121.652344 168.496094 121.433594 L 164.769531 114.875 C 164.585938 114.546875 164.699219 114.128906 165.027344 113.941406 C 165.355469 113.753906 165.769531 113.871094 165.957031 114.199219 L 169.683594 120.757812 C 169.871094 121.085938 169.757812 121.5 169.425781 121.6875 C 169.320312 121.75 169.207031 121.777344 169.089844 121.777344 "></path><path style=" stroke:none;fill-rule:nonzero;fill:#ffffff;fill-opacity:1;" d="M 156.367188 134.695312 C 156.25 134.695312 156.128906 134.667969 156.023438 134.605469 L 149.5625 130.816406 C 149.238281 130.625 149.128906 130.207031 149.320312 129.882812 C 149.511719 129.558594 149.933594 129.449219 150.253906 129.636719 L 156.714844 133.425781 C 157.039062 133.617188 157.148438 134.035156 156.957031 134.359375 C 156.828125 134.578125 156.601562 134.695312 156.367188 134.695312 "></path><g clip-rule="nonzero" clip-path="url(#54f5714acc)"><path style=" stroke:none;fill-rule:nonzero;fill:#ffffff;fill-opacity:1;" d="M 154.324219 153.027344 L 142.238281 153.023438 C 141.484375 153.023438 140.871094 152.414062 140.871094 151.660156 C 140.871094 150.90625 141.484375 150.292969 142.238281 150.292969 L 154.324219 150.296875 C 155.078125 150.296875 155.6875 150.910156 155.6875 151.664062 C 155.6875 152.417969 155.078125 153.027344 154.324219 153.027344 "></path></g><path style=" stroke:none;fill-rule:nonzero;fill:#ffffff;fill-opacity:1;" d="M 149.90625 173.777344 C 149.675781 173.777344 149.445312 173.65625 149.320312 173.4375 C 149.128906 173.113281 149.238281 172.695312 149.5625 172.503906 L 156.023438 168.722656 C 156.351562 168.535156 156.769531 168.640625 156.957031 168.964844 C 157.148438 169.289062 157.039062 169.707031 156.714844 169.898438 L 150.253906 173.683594 C 150.144531 173.746094 150.023438 173.777344 149.90625 173.777344 "></path><path style=" stroke:none;fill-rule:nonzero;fill:#ffffff;fill-opacity:1;" d="M 165.359375 189.46875 C 165.246094 189.46875 165.128906 189.4375 165.023438 189.378906 C 164.695312 189.191406 164.582031 188.773438 164.769531 188.449219 L 168.5 181.890625 C 168.6875 181.5625 169.105469 181.449219 169.429688 181.636719 C 169.757812 181.824219 169.875 182.238281 169.6875 182.566406 L 165.953125 189.121094 C 165.828125 189.34375 165.597656 189.46875 165.359375 189.46875 "></path><g clip-rule="nonzero" clip-path="url(#2f368c9bd4)"><path style=" stroke:none;fill-rule:nonzero;fill:#ffffff;fill-opacity:1;" d="M 186.46875 198.242188 C 185.714844 198.242188 185.101562 197.632812 185.101562 196.878906 L 185.109375 184.605469 C 185.109375 183.851562 185.722656 183.238281 186.472656 183.238281 C 187.230469 183.238281 187.839844 183.851562 187.839844 184.605469 L 187.832031 196.878906 C 187.832031 197.632812 187.222656 198.242188 186.46875 198.242188 "></path></g><path style=" stroke:none;fill-rule:nonzero;fill:#ffffff;fill-opacity:1;" d="M 207.578125 189.46875 C 207.34375 189.46875 207.113281 189.34375 206.984375 189.121094 L 203.261719 182.5625 C 203.074219 182.234375 203.1875 181.816406 203.519531 181.632812 C 203.847656 181.445312 204.265625 181.558594 204.449219 181.890625 L 208.171875 188.449219 C 208.359375 188.777344 208.246094 189.195312 207.917969 189.378906 C 207.808594 189.441406 207.695312 189.46875 207.578125 189.46875 "></path><path style=" stroke:none;fill-rule:nonzero;fill:#ffffff;fill-opacity:1;" d="M 223.035156 173.777344 C 222.914062 173.777344 222.796875 173.75 222.6875 173.6875 L 216.230469 169.894531 C 215.90625 169.703125 215.796875 169.285156 215.988281 168.960938 C 216.179688 168.632812 216.601562 168.53125 216.921875 168.71875 L 223.378906 172.507812 C 223.703125 172.699219 223.8125 173.117188 223.621094 173.441406 C 223.496094 173.660156 223.265625 173.777344 223.035156 173.777344 "></path><g clip-rule="nonzero" clip-path="url(#b5a2946e54)"><path style=" stroke:none;fill-rule:nonzero;fill:#ffffff;fill-opacity:1;" d="M 231.003906 153.027344 L 218.917969 153.023438 C 218.164062 153.023438 217.554688 152.410156 217.554688 151.660156 C 217.554688 150.90625 218.164062 150.292969 218.917969 150.292969 L 231.003906 150.296875 C 231.761719 150.296875 232.371094 150.910156 232.371094 151.664062 C 232.371094 152.417969 231.757812 153.027344 231.003906 153.027344 "></path></g><path style=" stroke:none;fill-rule:nonzero;fill:#ffffff;fill-opacity:1;" d="M 216.578125 134.695312 C 216.34375 134.695312 216.113281 134.574219 215.988281 134.359375 C 215.796875 134.03125 215.90625 133.613281 216.230469 133.421875 L 222.6875 129.640625 C 223.015625 129.453125 223.433594 129.5625 223.625 129.886719 C 223.816406 130.210938 223.707031 130.628906 223.378906 130.820312 L 216.921875 134.601562 C 216.8125 134.664062 216.695312 134.695312 216.578125 134.695312 "></path><path style=" stroke:none;fill-rule:nonzero;fill:#ffffff;fill-opacity:1;" d="M 203.851562 121.777344 C 203.738281 121.777344 203.621094 121.75 203.515625 121.6875 C 203.1875 121.5 203.070312 121.085938 203.257812 120.757812 L 206.988281 114.199219 C 207.175781 113.871094 207.589844 113.761719 207.921875 113.945312 C 208.246094 114.132812 208.363281 114.546875 208.175781 114.875 L 204.445312 121.429688 C 204.320312 121.652344 204.089844 121.777344 203.851562 121.777344 "></path><path style=" stroke:none;fill-rule:nonzero;fill:#ffffff;fill-opacity:1;" d="M 186.46875 112.75 C 186.371094 112.75 186.296875 112.675781 186.296875 112.582031 L 186.300781 108.796875 C 186.300781 108.703125 186.378906 108.625 186.472656 108.625 C 186.566406 108.625 186.644531 108.703125 186.644531 108.796875 L 186.640625 112.582031 C 186.640625 112.675781 186.5625 112.75 186.46875 112.75 "></path><path style=" stroke:none;fill-rule:nonzero;fill:#ffffff;fill-opacity:1;" d="M 182.445312 113.304688 C 182.1875 113.304688 181.964844 113.109375 181.9375 112.847656 L 181.550781 109.082031 C 181.523438 108.800781 181.726562 108.550781 182.007812 108.519531 C 182.289062 108.5 182.542969 108.695312 182.570312 108.976562 L 182.957031 112.742188 C 182.984375 113.023438 182.78125 113.273438 182.5 113.304688 C 182.480469 113.304688 182.464844 113.304688 182.445312 113.304688 "></path><path style=" stroke:none;fill-rule:nonzero;fill:#ffffff;fill-opacity:1;" d="M 178.46875 113.945312 C 178.230469 113.945312 178.015625 113.78125 177.96875 113.539062 L 177.195312 109.835938 C 177.136719 109.558594 177.316406 109.285156 177.59375 109.230469 C 177.867188 109.179688 178.140625 109.347656 178.199219 109.625 L 178.96875 113.328125 C 179.027344 113.605469 178.847656 113.878906 178.570312 113.933594 C 178.539062 113.941406 178.5 113.945312 178.46875 113.945312 "></path><path style=" stroke:none;fill-rule:nonzero;fill:#ffffff;fill-opacity:1;" d="M 174.574219 115.007812 C 174.359375 115.007812 174.15625 114.867188 174.085938 114.652344 L 172.941406 111.046875 C 172.855469 110.78125 173 110.492188 173.273438 110.40625 C 173.539062 110.320312 173.828125 110.46875 173.917969 110.738281 L 175.0625 114.335938 C 175.148438 114.609375 175.003906 114.894531 174.730469 114.980469 C 174.679688 115 174.628906 115.007812 174.574219 115.007812 "></path><path style=" stroke:none;fill-rule:nonzero;fill:#ffffff;fill-opacity:1;" d="M 170.816406 116.472656 C 170.617188 116.472656 170.429688 116.355469 170.347656 116.164062 L 168.832031 112.703125 C 168.71875 112.445312 168.839844 112.140625 169.097656 112.027344 C 169.351562 111.917969 169.660156 112.03125 169.773438 112.292969 L 171.285156 115.753906 C 171.398438 116.015625 171.277344 116.316406 171.019531 116.429688 C 170.953125 116.457031 170.882812 116.472656 170.816406 116.472656 "></path><path style=" stroke:none;fill-rule:nonzero;fill:#ffffff;fill-opacity:1;" d="M 167.226562 117.988281 C 167.167969 117.988281 167.105469 117.957031 167.074219 117.902344 L 165.214844 114.621094 C 165.167969 114.539062 165.199219 114.433594 165.28125 114.386719 C 165.359375 114.339844 165.464844 114.367188 165.511719 114.453125 L 167.371094 117.734375 C 167.417969 117.8125 167.390625 117.917969 167.308594 117.964844 C 167.28125 117.980469 167.25 117.988281 167.226562 117.988281 "></path><path style=" stroke:none;fill-rule:nonzero;fill:#ffffff;fill-opacity:1;" d="M 163.847656 120.558594 C 163.6875 120.558594 163.527344 120.484375 163.429688 120.34375 L 161.238281 117.277344 C 161.078125 117.046875 161.128906 116.730469 161.359375 116.5625 C 161.589844 116.398438 161.910156 116.453125 162.074219 116.683594 L 164.261719 119.75 C 164.425781 119.980469 164.375 120.296875 164.140625 120.464844 C 164.050781 120.527344 163.949219 120.558594 163.847656 120.558594 "></path><path style=" stroke:none;fill-rule:nonzero;fill:#ffffff;fill-opacity:1;" d="M 160.714844 123.132812 C 160.574219 123.132812 160.429688 123.074219 160.332031 122.960938 L 157.839844 120.140625 C 157.652344 119.933594 157.671875 119.609375 157.882812 119.421875 C 158.09375 119.234375 158.421875 119.253906 158.605469 119.464844 L 161.097656 122.28125 C 161.285156 122.492188 161.265625 122.816406 161.054688 123.003906 C 160.957031 123.089844 160.835938 123.132812 160.714844 123.132812 "></path><path style=" stroke:none;fill-rule:nonzero;fill:#ffffff;fill-opacity:1;" d="M 157.863281 126.027344 C 157.742188 126.027344 157.617188 125.984375 157.519531 125.890625 L 154.753906 123.355469 C 154.542969 123.164062 154.53125 122.839844 154.71875 122.632812 C 154.914062 122.421875 155.238281 122.410156 155.441406 122.601562 L 158.210938 125.136719 C 158.417969 125.328125 158.433594 125.652344 158.242188 125.859375 C 158.140625 125.972656 158.003906 126.027344 157.863281 126.027344 "></path><path style=" stroke:none;fill-rule:nonzero;fill:#ffffff;fill-opacity:1;" d="M 155.332031 129.207031 C 155.222656 129.207031 155.117188 129.171875 155.027344 129.105469 L 152.011719 126.878906 C 151.785156 126.710938 151.734375 126.386719 151.90625 126.160156 C 152.074219 125.933594 152.398438 125.886719 152.621094 126.054688 L 155.636719 128.28125 C 155.863281 128.449219 155.910156 128.769531 155.742188 128.996094 C 155.640625 129.132812 155.484375 129.207031 155.332031 129.207031 "></path><path style=" stroke:none;fill-rule:nonzero;fill:#ffffff;fill-opacity:1;" d="M 153.136719 132.292969 C 153.105469 132.292969 153.078125 132.285156 153.050781 132.269531 L 149.824219 130.375 C 149.742188 130.328125 149.714844 130.222656 149.761719 130.140625 C 149.808594 130.058594 149.910156 130.03125 149.996094 130.082031 L 153.222656 131.976562 C 153.304688 132.023438 153.332031 132.128906 153.28125 132.210938 C 153.25 132.265625 153.195312 132.292969 153.136719 132.292969 "></path><path style=" stroke:none;fill-rule:nonzero;fill:#ffffff;fill-opacity:1;" d="M 151.304688 136.28125 C 151.238281 136.28125 151.164062 136.265625 151.097656 136.234375 L 147.691406 134.695312 C 147.433594 134.578125 147.320312 134.273438 147.4375 134.015625 C 147.550781 133.757812 147.859375 133.644531 148.113281 133.761719 L 151.515625 135.300781 C 151.777344 135.417969 151.890625 135.722656 151.773438 135.980469 C 151.6875 136.167969 151.5 136.28125 151.304688 136.28125 "></path><path style=" stroke:none;fill-rule:nonzero;fill:#ffffff;fill-opacity:1;" d="M 149.863281 140.101562 C 149.808594 140.101562 149.757812 140.09375 149.703125 140.074219 L 146.160156 138.902344 C 145.890625 138.8125 145.746094 138.523438 145.832031 138.253906 C 145.921875 137.984375 146.210938 137.84375 146.480469 137.929688 L 150.023438 139.101562 C 150.292969 139.191406 150.4375 139.480469 150.351562 139.75 C 150.277344 139.964844 150.078125 140.101562 149.863281 140.101562 "></path><path style=" stroke:none;fill-rule:nonzero;fill:#ffffff;fill-opacity:1;" d="M 148.820312 144.050781 C 148.785156 144.050781 148.75 144.046875 148.714844 144.039062 L 145.070312 143.25 C 144.792969 143.1875 144.617188 142.917969 144.675781 142.640625 C 144.738281 142.363281 145.011719 142.1875 145.285156 142.25 L 148.929688 143.039062 C 149.207031 143.101562 149.382812 143.371094 149.320312 143.648438 C 149.269531 143.886719 149.058594 144.050781 148.820312 144.050781 "></path><path style=" stroke:none;fill-rule:nonzero;fill:#ffffff;fill-opacity:1;" d="M 148.191406 148.089844 C 148.175781 148.089844 148.152344 148.089844 148.136719 148.089844 L 144.429688 147.691406 C 144.148438 147.660156 143.945312 147.40625 143.972656 147.125 C 144.003906 146.847656 144.246094 146.660156 144.539062 146.671875 L 148.246094 147.070312 C 148.527344 147.097656 148.730469 147.351562 148.699219 147.632812 C 148.671875 147.894531 148.449219 148.089844 148.191406 148.089844 "></path><path style=" stroke:none;fill-rule:nonzero;fill:#ffffff;fill-opacity:1;" d="M 147.980469 151.835938 L 144.253906 151.832031 C 144.160156 151.832031 144.082031 151.757812 144.082031 151.664062 C 144.082031 151.566406 144.160156 151.492188 144.253906 151.492188 L 147.980469 151.496094 C 148.074219 151.496094 148.152344 151.570312 148.152344 151.664062 C 148.152344 151.761719 148.074219 151.835938 147.980469 151.835938 "></path><path style=" stroke:none;fill-rule:nonzero;fill:#ffffff;fill-opacity:1;" d="M 144.484375 156.652344 C 144.226562 156.652344 144.003906 156.460938 143.972656 156.195312 C 143.945312 155.914062 144.148438 155.660156 144.429688 155.632812 L 148.136719 155.242188 C 148.421875 155.226562 148.671875 155.414062 148.699219 155.695312 C 148.730469 155.976562 148.527344 156.230469 148.242188 156.261719 L 144.539062 156.652344 C 144.519531 156.652344 144.5 156.652344 144.484375 156.652344 "></path><path style=" stroke:none;fill-rule:nonzero;fill:#ffffff;fill-opacity:1;" d="M 145.175781 161.085938 C 144.9375 161.085938 144.726562 160.921875 144.675781 160.679688 C 144.617188 160.402344 144.792969 160.132812 145.070312 160.074219 L 148.714844 159.289062 C 149.007812 159.230469 149.261719 159.40625 149.320312 159.683594 C 149.382812 159.960938 149.207031 160.230469 148.929688 160.289062 L 145.285156 161.074219 C 145.246094 161.082031 145.210938 161.085938 145.175781 161.085938 "></path><path style=" stroke:none;fill-rule:nonzero;fill:#ffffff;fill-opacity:1;" d="M 146.320312 165.421875 C 146.105469 165.421875 145.902344 165.285156 145.832031 165.070312 C 145.746094 164.800781 145.890625 164.507812 146.160156 164.421875 L 149.703125 163.257812 C 149.96875 163.167969 150.261719 163.3125 150.351562 163.582031 C 150.4375 163.851562 150.292969 164.140625 150.023438 164.230469 L 146.480469 165.394531 C 146.425781 165.414062 146.371094 165.421875 146.320312 165.421875 "></path><path style=" stroke:none;fill-rule:nonzero;fill:#ffffff;fill-opacity:1;" d="M 147.902344 169.609375 C 147.707031 169.609375 147.523438 169.496094 147.4375 169.308594 C 147.320312 169.046875 147.433594 168.746094 147.691406 168.628906 L 151.097656 167.09375 C 151.355469 166.976562 151.660156 167.09375 151.777344 167.351562 C 151.890625 167.609375 151.777344 167.910156 151.519531 168.027344 L 148.113281 169.5625 C 148.046875 169.59375 147.972656 169.609375 147.902344 169.609375 "></path><path style=" stroke:none;fill-rule:nonzero;fill:#ffffff;fill-opacity:1;" d="M 149.910156 173.265625 C 149.851562 173.265625 149.792969 173.234375 149.761719 173.179688 C 149.714844 173.101562 149.742188 172.992188 149.824219 172.945312 L 153.050781 171.058594 C 153.132812 171.011719 153.238281 171.039062 153.285156 171.117188 C 153.332031 171.199219 153.304688 171.304688 153.222656 171.351562 L 149.996094 173.242188 C 149.96875 173.257812 149.9375 173.265625 149.910156 173.265625 "></path><path style=" stroke:none;fill-rule:nonzero;fill:#ffffff;fill-opacity:1;" d="M 152.316406 177.367188 C 152.160156 177.367188 152.003906 177.296875 151.90625 177.160156 C 151.734375 176.933594 151.785156 176.609375 152.011719 176.445312 L 155.027344 174.226562 C 155.257812 174.054688 155.578125 174.105469 155.742188 174.335938 C 155.910156 174.5625 155.863281 174.882812 155.636719 175.050781 L 152.621094 177.269531 C 152.527344 177.335938 152.421875 177.367188 152.316406 177.367188 "></path><path style=" stroke:none;fill-rule:nonzero;fill:#ffffff;fill-opacity:1;" d="M 155.097656 180.855469 C 154.957031 180.855469 154.820312 180.800781 154.71875 180.691406 C 154.527344 180.480469 154.542969 180.15625 154.753906 179.964844 L 157.523438 177.4375 C 157.734375 177.246094 158.054688 177.261719 158.25 177.46875 C 158.4375 177.679688 158.421875 178.003906 158.214844 178.195312 L 155.441406 180.722656 C 155.34375 180.8125 155.21875 180.855469 155.097656 180.855469 "></path><path style=" stroke:none;fill-rule:nonzero;fill:#ffffff;fill-opacity:1;" d="M 158.222656 184.03125 C 158.101562 184.03125 157.980469 183.988281 157.882812 183.902344 C 157.671875 183.710938 157.652344 183.390625 157.839844 183.175781 L 160.335938 180.367188 C 160.523438 180.15625 160.847656 180.136719 161.058594 180.324219 C 161.269531 180.511719 161.289062 180.835938 161.097656 181.046875 L 158.605469 183.859375 C 158.503906 183.972656 158.363281 184.03125 158.222656 184.03125 "></path><path style=" stroke:none;fill-rule:nonzero;fill:#ffffff;fill-opacity:1;" d="M 161.65625 186.855469 C 161.554688 186.855469 161.449219 186.824219 161.359375 186.757812 C 161.128906 186.59375 161.078125 186.273438 161.242188 186.042969 L 163.433594 182.984375 C 163.601562 182.753906 163.921875 182.703125 164.148438 182.867188 C 164.375 183.027344 164.429688 183.351562 164.265625 183.582031 L 162.074219 186.640625 C 161.972656 186.78125 161.816406 186.855469 161.65625 186.855469 "></path><path style=" stroke:none;fill-rule:nonzero;fill:#ffffff;fill-opacity:1;" d="M 165.363281 188.957031 C 165.335938 188.957031 165.304688 188.949219 165.28125 188.933594 C 165.199219 188.886719 165.167969 188.785156 165.214844 188.703125 L 167.078125 185.425781 C 167.125 185.339844 167.230469 185.3125 167.308594 185.363281 C 167.394531 185.410156 167.421875 185.511719 167.375 185.59375 L 165.511719 188.871094 C 165.480469 188.925781 165.421875 188.957031 165.363281 188.957031 "></path><path style=" stroke:none;fill-rule:nonzero;fill:#ffffff;fill-opacity:1;" d="M 169.304688 191.335938 C 169.234375 191.335938 169.164062 191.320312 169.097656 191.292969 C 168.839844 191.179688 168.71875 190.875 168.832031 190.617188 L 170.347656 187.164062 C 170.460938 186.902344 170.765625 186.785156 171.023438 186.898438 C 171.28125 187.011719 171.398438 187.316406 171.285156 187.574219 L 169.773438 191.027344 C 169.6875 191.21875 169.5 191.335938 169.304688 191.335938 "></path><path style=" stroke:none;fill-rule:nonzero;fill:#ffffff;fill-opacity:1;" d="M 173.429688 192.941406 C 173.375 192.941406 173.324219 192.933594 173.273438 192.917969 C 173 192.832031 172.855469 192.542969 172.941406 192.273438 L 174.089844 188.675781 C 174.175781 188.40625 174.464844 188.257812 174.734375 188.34375 C 175.003906 188.429688 175.152344 188.71875 175.066406 188.988281 L 173.914062 192.585938 C 173.847656 192.804688 173.644531 192.941406 173.429688 192.941406 "></path><path style=" stroke:none;fill-rule:nonzero;fill:#ffffff;fill-opacity:1;" d="M 177.695312 194.101562 C 177.660156 194.101562 177.625 194.097656 177.589844 194.09375 C 177.316406 194.035156 177.136719 193.761719 177.195312 193.484375 L 177.96875 189.785156 C 178.027344 189.507812 178.296875 189.339844 178.578125 189.390625 C 178.851562 189.449219 179.027344 189.71875 178.96875 189.996094 L 178.199219 193.695312 C 178.144531 193.9375 177.933594 194.101562 177.695312 194.101562 "></path><path style=" stroke:none;fill-rule:nonzero;fill:#ffffff;fill-opacity:1;" d="M 182.058594 194.804688 C 182.042969 194.804688 182.023438 194.804688 182.007812 194.800781 C 181.726562 194.773438 181.519531 194.519531 181.550781 194.238281 L 181.941406 190.480469 C 181.972656 190.199219 182.207031 190.003906 182.503906 190.023438 C 182.785156 190.050781 182.988281 190.304688 182.960938 190.585938 L 182.570312 194.34375 C 182.542969 194.609375 182.320312 194.804688 182.058594 194.804688 "></path><path style=" stroke:none;fill-rule:nonzero;fill:#ffffff;fill-opacity:1;" d="M 186.472656 194.699219 C 186.378906 194.699219 186.300781 194.621094 186.300781 194.527344 L 186.300781 190.746094 C 186.300781 190.648438 186.378906 190.574219 186.472656 190.574219 C 186.566406 190.574219 186.644531 190.648438 186.644531 190.746094 L 186.644531 194.527344 C 186.644531 194.621094 186.566406 194.699219 186.472656 194.699219 "></path><path style=" stroke:none;fill-rule:nonzero;fill:#ffffff;fill-opacity:1;" d="M 190.886719 194.804688 C 190.625 194.804688 190.402344 194.609375 190.378906 194.34375 L 189.988281 190.585938 C 189.957031 190.304688 190.164062 190.050781 190.441406 190.023438 C 190.738281 190.003906 190.976562 190.199219 191.007812 190.480469 L 191.394531 194.238281 C 191.425781 194.519531 191.222656 194.773438 190.941406 194.800781 C 190.921875 194.804688 190.902344 194.804688 190.886719 194.804688 "></path><path style=" stroke:none;fill-rule:nonzero;fill:#ffffff;fill-opacity:1;" d="M 195.25 194.101562 C 195.011719 194.101562 194.800781 193.9375 194.75 193.695312 L 193.976562 189.996094 C 193.914062 189.71875 194.09375 189.449219 194.371094 189.390625 C 194.652344 189.339844 194.917969 189.507812 194.976562 189.785156 L 195.75 193.484375 C 195.808594 193.761719 195.632812 194.035156 195.355469 194.09375 C 195.320312 194.097656 195.285156 194.101562 195.25 194.101562 "></path><path style=" stroke:none;fill-rule:nonzero;fill:#ffffff;fill-opacity:1;" d="M 199.519531 192.941406 C 199.300781 192.941406 199.101562 192.800781 199.03125 192.585938 L 197.878906 188.988281 C 197.792969 188.71875 197.941406 188.429688 198.210938 188.34375 C 198.480469 188.257812 198.765625 188.40625 198.855469 188.675781 L 200.007812 192.273438 C 200.09375 192.542969 199.945312 192.832031 199.675781 192.917969 C 199.625 192.933594 199.570312 192.941406 199.519531 192.941406 "></path><path style=" stroke:none;fill-rule:nonzero;fill:#ffffff;fill-opacity:1;" d="M 203.644531 191.335938 C 203.445312 191.335938 203.257812 191.21875 203.175781 191.027344 L 201.660156 187.570312 C 201.546875 187.3125 201.664062 187.007812 201.921875 186.894531 C 202.179688 186.78125 202.484375 186.898438 202.597656 187.160156 L 204.113281 190.617188 C 204.226562 190.875 204.109375 191.179688 203.847656 191.292969 C 203.78125 191.320312 203.714844 191.335938 203.644531 191.335938 "></path><path style=" stroke:none;fill-rule:nonzero;fill:#ffffff;fill-opacity:1;" d="M 207.582031 188.957031 C 207.523438 188.957031 207.464844 188.925781 207.433594 188.871094 L 205.570312 185.589844 C 205.523438 185.511719 205.550781 185.40625 205.636719 185.359375 C 205.714844 185.3125 205.820312 185.339844 205.867188 185.421875 L 207.730469 188.703125 C 207.777344 188.785156 207.75 188.886719 207.664062 188.933594 C 207.640625 188.949219 207.613281 188.957031 207.582031 188.957031 "></path><path style=" stroke:none;fill-rule:nonzero;fill:#ffffff;fill-opacity:1;" d="M 211.289062 186.851562 C 211.128906 186.851562 210.972656 186.777344 210.871094 186.640625 L 208.683594 183.582031 C 208.515625 183.351562 208.570312 183.027344 208.800781 182.867188 C 209.027344 182.703125 209.347656 182.753906 209.511719 182.984375 L 211.703125 186.042969 C 211.871094 186.273438 211.816406 186.59375 211.585938 186.757812 C 211.496094 186.820312 211.394531 186.851562 211.289062 186.851562 "></path><path style=" stroke:none;fill-rule:nonzero;fill:#ffffff;fill-opacity:1;" d="M 214.722656 184.03125 C 214.582031 184.03125 214.441406 183.972656 214.339844 183.859375 L 211.847656 181.046875 C 211.65625 180.832031 211.679688 180.507812 211.886719 180.320312 C 212.101562 180.132812 212.425781 180.152344 212.613281 180.363281 L 215.105469 183.175781 C 215.292969 183.390625 215.273438 183.714844 215.0625 183.902344 C 214.964844 183.988281 214.84375 184.03125 214.722656 184.03125 "></path><path style=" stroke:none;fill-rule:nonzero;fill:#ffffff;fill-opacity:1;" d="M 217.847656 180.855469 C 217.722656 180.855469 217.601562 180.8125 217.503906 180.722656 L 214.734375 178.1875 C 214.523438 178 214.507812 177.675781 214.699219 177.46875 C 214.890625 177.257812 215.214844 177.242188 215.421875 177.433594 L 218.191406 179.964844 C 218.402344 180.15625 218.417969 180.480469 218.226562 180.691406 C 218.125 180.800781 217.984375 180.855469 217.847656 180.855469 "></path><path style=" stroke:none;fill-rule:nonzero;fill:#ffffff;fill-opacity:1;" d="M 220.628906 177.367188 C 220.523438 177.367188 220.417969 177.335938 220.324219 177.269531 L 217.308594 175.046875 C 217.082031 174.878906 217.035156 174.558594 217.203125 174.328125 C 217.367188 174.101562 217.6875 174.054688 217.917969 174.222656 L 220.933594 176.445312 C 221.160156 176.613281 221.210938 176.933594 221.042969 177.160156 C 220.941406 177.296875 220.785156 177.367188 220.628906 177.367188 "></path><path style=" stroke:none;fill-rule:nonzero;fill:#ffffff;fill-opacity:1;" d="M 223.035156 173.265625 C 223.007812 173.265625 222.976562 173.257812 222.949219 173.242188 L 219.722656 171.351562 C 219.640625 171.304688 219.613281 171.199219 219.660156 171.117188 C 219.703125 171.035156 219.808594 171.007812 219.894531 171.058594 L 223.121094 172.945312 C 223.203125 172.992188 223.230469 173.101562 223.183594 173.179688 C 223.152344 173.234375 223.09375 173.265625 223.035156 173.265625 "></path><path style=" stroke:none;fill-rule:nonzero;fill:#ffffff;fill-opacity:1;" d="M 225.042969 169.605469 C 224.972656 169.605469 224.902344 169.589844 224.832031 169.5625 L 221.425781 168.023438 C 221.167969 167.910156 221.054688 167.605469 221.167969 167.347656 C 221.285156 167.089844 221.589844 166.976562 221.84375 167.089844 L 225.253906 168.628906 C 225.511719 168.742188 225.625 169.046875 225.511719 169.304688 C 225.425781 169.492188 225.238281 169.605469 225.042969 169.605469 "></path><path style=" stroke:none;fill-rule:nonzero;fill:#ffffff;fill-opacity:1;" d="M 226.625 165.417969 C 226.574219 165.417969 226.519531 165.410156 226.464844 165.390625 L 222.921875 164.226562 C 222.652344 164.136719 222.507812 163.847656 222.59375 163.578125 C 222.683594 163.308594 222.972656 163.164062 223.242188 163.253906 L 226.785156 164.417969 C 227.054688 164.507812 227.199219 164.792969 227.113281 165.0625 C 227.042969 165.28125 226.839844 165.417969 226.625 165.417969 "></path><path style=" stroke:none;fill-rule:nonzero;fill:#ffffff;fill-opacity:1;" d="M 227.769531 161.085938 C 227.734375 161.085938 227.695312 161.082031 227.660156 161.074219 L 224.015625 160.289062 C 223.738281 160.230469 223.5625 159.957031 223.621094 159.679688 C 223.679688 159.40625 223.949219 159.226562 224.230469 159.289062 L 227.875 160.074219 C 228.152344 160.132812 228.328125 160.40625 228.265625 160.679688 C 228.214844 160.921875 228.003906 161.085938 227.769531 161.085938 "></path><path style=" stroke:none;fill-rule:nonzero;fill:#ffffff;fill-opacity:1;" d="M 228.460938 156.652344 C 228.441406 156.652344 228.421875 156.652344 228.40625 156.652344 L 224.699219 156.257812 C 224.417969 156.226562 224.214844 155.972656 224.242188 155.691406 C 224.273438 155.410156 224.507812 155.214844 224.808594 155.238281 L 228.511719 155.632812 C 228.796875 155.664062 228.996094 155.917969 228.96875 156.195312 C 228.941406 156.460938 228.71875 156.652344 228.460938 156.652344 "></path><path style=" stroke:none;fill-rule:nonzero;fill:#ffffff;fill-opacity:1;" d="M 224.964844 151.832031 C 224.867188 151.832031 224.792969 151.757812 224.792969 151.664062 C 224.792969 151.566406 224.867188 151.492188 224.964844 151.492188 L 228.691406 151.488281 C 228.785156 151.488281 228.863281 151.566406 228.863281 151.660156 C 228.863281 151.753906 228.785156 151.832031 228.691406 151.832031 L 224.964844 151.832031 "></path><path style=" stroke:none;fill-rule:nonzero;fill:#ffffff;fill-opacity:1;" d="M 224.753906 148.089844 C 224.496094 148.089844 224.273438 147.894531 224.242188 147.628906 C 224.214844 147.347656 224.417969 147.097656 224.699219 147.066406 L 228.40625 146.671875 C 228.703125 146.65625 228.9375 146.847656 228.96875 147.125 C 228.996094 147.40625 228.796875 147.660156 228.511719 147.691406 L 224.808594 148.085938 C 224.789062 148.085938 224.773438 148.089844 224.753906 148.089844 "></path><path style=" stroke:none;fill-rule:nonzero;fill:#ffffff;fill-opacity:1;" d="M 224.121094 144.050781 C 223.886719 144.050781 223.675781 143.886719 223.621094 143.644531 C 223.5625 143.367188 223.738281 143.097656 224.015625 143.035156 L 227.660156 142.25 C 227.929688 142.1875 228.207031 142.363281 228.265625 142.640625 C 228.324219 142.917969 228.148438 143.1875 227.875 143.25 L 224.230469 144.039062 C 224.195312 144.046875 224.160156 144.050781 224.121094 144.050781 "></path><path style=" stroke:none;fill-rule:nonzero;fill:#ffffff;fill-opacity:1;" d="M 223.082031 140.097656 C 222.867188 140.097656 222.664062 139.960938 222.59375 139.746094 C 222.507812 139.476562 222.648438 139.1875 222.917969 139.097656 L 226.460938 137.925781 C 226.730469 137.839844 227.019531 137.984375 227.109375 138.253906 C 227.199219 138.523438 227.054688 138.808594 226.785156 138.898438 L 223.242188 140.070312 C 223.1875 140.089844 223.132812 140.097656 223.082031 140.097656 "></path><path style=" stroke:none;fill-rule:nonzero;fill:#ffffff;fill-opacity:1;" d="M 221.632812 136.277344 C 221.441406 136.277344 221.253906 136.164062 221.167969 135.976562 C 221.054688 135.71875 221.164062 135.414062 221.421875 135.296875 L 224.832031 133.757812 C 225.085938 133.644531 225.390625 133.753906 225.507812 134.011719 C 225.625 134.269531 225.511719 134.574219 225.25 134.691406 L 221.84375 136.230469 C 221.777344 136.261719 221.707031 136.277344 221.632812 136.277344 "></path><path style=" stroke:none;fill-rule:nonzero;fill:#ffffff;fill-opacity:1;" d="M 219.808594 132.292969 C 219.75 132.292969 219.691406 132.261719 219.660156 132.207031 C 219.613281 132.125 219.640625 132.019531 219.722656 131.976562 L 222.949219 130.082031 C 223.03125 130.03125 223.136719 130.058594 223.179688 130.140625 C 223.230469 130.222656 223.203125 130.328125 223.121094 130.375 L 219.894531 132.269531 C 219.867188 132.285156 219.835938 132.292969 219.808594 132.292969 "></path><path style=" stroke:none;fill-rule:nonzero;fill:#ffffff;fill-opacity:1;" d="M 217.613281 129.203125 C 217.457031 129.203125 217.300781 129.132812 217.199219 128.996094 C 217.03125 128.765625 217.082031 128.445312 217.308594 128.277344 L 220.324219 126.054688 C 220.550781 125.886719 220.871094 125.933594 221.039062 126.160156 C 221.207031 126.390625 221.160156 126.710938 220.933594 126.878906 L 217.917969 129.101562 C 217.824219 129.171875 217.71875 129.203125 217.613281 129.203125 "></path><path style=" stroke:none;fill-rule:nonzero;fill:#ffffff;fill-opacity:1;" d="M 215.078125 126.023438 C 214.9375 126.023438 214.800781 125.96875 214.699219 125.855469 C 214.511719 125.648438 214.523438 125.324219 214.734375 125.132812 L 217.503906 122.597656 C 217.707031 122.410156 218.035156 122.421875 218.226562 122.632812 C 218.414062 122.839844 218.402344 123.164062 218.191406 123.355469 L 215.421875 125.886719 C 215.328125 125.980469 215.203125 126.023438 215.078125 126.023438 "></path><path style=" stroke:none;fill-rule:nonzero;fill:#ffffff;fill-opacity:1;" d="M 212.226562 123.128906 C 212.105469 123.128906 211.984375 123.085938 211.886719 123 C 211.675781 122.8125 211.65625 122.488281 211.847656 122.277344 L 214.339844 119.464844 C 214.527344 119.253906 214.851562 119.234375 215.0625 119.421875 C 215.273438 119.609375 215.292969 119.933594 215.105469 120.144531 L 212.609375 122.957031 C 212.511719 123.070312 212.371094 123.128906 212.226562 123.128906 "></path><path style=" stroke:none;fill-rule:nonzero;fill:#ffffff;fill-opacity:1;" d="M 209.097656 120.554688 C 208.996094 120.554688 208.890625 120.523438 208.800781 120.457031 C 208.570312 120.292969 208.515625 119.972656 208.683594 119.746094 L 210.871094 116.683594 C 211.039062 116.449219 211.359375 116.398438 211.585938 116.5625 C 211.816406 116.726562 211.867188 117.046875 211.703125 117.277344 L 209.515625 120.339844 C 209.414062 120.480469 209.257812 120.554688 209.097656 120.554688 "></path><path style=" stroke:none;fill-rule:nonzero;fill:#ffffff;fill-opacity:1;" d="M 205.71875 117.984375 C 205.691406 117.984375 205.660156 117.980469 205.636719 117.960938 C 205.554688 117.914062 205.523438 117.8125 205.570312 117.730469 L 207.433594 114.453125 C 207.476562 114.367188 207.585938 114.339844 207.664062 114.386719 C 207.746094 114.433594 207.777344 114.539062 207.730469 114.621094 L 205.867188 117.898438 C 205.839844 117.953125 205.777344 117.984375 205.71875 117.984375 "></path><path style=" stroke:none;fill-rule:nonzero;fill:#ffffff;fill-opacity:1;" d="M 202.128906 116.46875 C 202.058594 116.46875 201.988281 116.453125 201.925781 116.425781 C 201.664062 116.3125 201.546875 116.007812 201.660156 115.75 L 203.171875 112.292969 C 203.285156 112.03125 203.589844 111.917969 203.847656 112.027344 C 204.105469 112.140625 204.226562 112.445312 204.109375 112.703125 L 202.597656 116.160156 C 202.515625 116.351562 202.324219 116.46875 202.128906 116.46875 "></path><path style=" stroke:none;fill-rule:nonzero;fill:#ffffff;fill-opacity:1;" d="M 198.367188 115.003906 C 198.316406 115.003906 198.261719 114.996094 198.210938 114.980469 C 197.941406 114.894531 197.792969 114.605469 197.878906 114.335938 L 199.03125 110.734375 C 199.117188 110.464844 199.402344 110.320312 199.671875 110.402344 C 199.945312 110.488281 200.089844 110.777344 200.003906 111.046875 L 198.855469 114.648438 C 198.785156 114.863281 198.585938 115.003906 198.367188 115.003906 "></path><path style=" stroke:none;fill-rule:nonzero;fill:#ffffff;fill-opacity:1;" d="M 194.476562 113.941406 C 194.441406 113.941406 194.40625 113.9375 194.371094 113.933594 C 194.09375 113.875 193.914062 113.601562 193.976562 113.324219 L 194.746094 109.625 C 194.804688 109.347656 195.070312 109.179688 195.355469 109.230469 C 195.628906 109.289062 195.808594 109.558594 195.75 109.835938 L 194.976562 113.535156 C 194.925781 113.777344 194.710938 113.941406 194.476562 113.941406 "></path><path style=" stroke:none;fill-rule:nonzero;fill:#ffffff;fill-opacity:1;" d="M 190.496094 113.304688 C 190.480469 113.304688 190.460938 113.304688 190.445312 113.300781 C 190.164062 113.273438 189.957031 113.023438 189.988281 112.738281 L 190.375 108.976562 C 190.402344 108.695312 190.664062 108.5 190.9375 108.515625 C 191.21875 108.546875 191.421875 108.796875 191.394531 109.078125 L 191.007812 112.84375 C 190.980469 113.109375 190.757812 113.304688 190.496094 113.304688 "></path><path style=" stroke:none;fill-rule:nonzero;fill:#ffffff;fill-opacity:1;" d="M 186.472656 112.746094 C 186.378906 112.746094 186.300781 112.671875 186.300781 112.578125 L 186.300781 108.792969 C 186.300781 108.699219 186.375 108.621094 186.472656 108.621094 C 186.566406 108.621094 186.640625 108.699219 186.640625 108.792969 L 186.644531 112.578125 C 186.644531 112.671875 186.566406 112.746094 186.472656 112.746094 "></path><path style=" stroke:none;fill-rule:nonzero;fill:#ffffff;fill-opacity:1;" d="M 186.621094 150.597656 C 186.054688 150.597656 185.59375 151.074219 185.59375 151.660156 C 185.59375 152.246094 186.054688 152.722656 186.621094 152.722656 C 187.1875 152.722656 187.648438 152.246094 187.648438 151.660156 C 187.648438 151.074219 187.1875 150.597656 186.621094 150.597656 Z M 186.621094 155.453125 C 184.550781 155.453125 182.863281 153.753906 182.863281 151.660156 C 182.863281 149.566406 184.550781 147.867188 186.621094 147.867188 C 188.691406 147.867188 190.378906 149.566406 190.378906 151.660156 C 190.378906 153.753906 188.691406 155.453125 186.621094 155.453125 "></path><path style=" stroke:none;fill-rule:nonzero;fill:#ffffff;fill-opacity:1;" d="M 187.984375 150.597656 C 187.835938 150.597656 187.6875 150.574219 187.542969 150.523438 C 186.828125 150.28125 186.449219 149.503906 186.691406 148.789062 L 194.964844 124.609375 C 195.210938 123.894531 195.988281 123.519531 196.699219 123.757812 C 197.410156 124.003906 197.792969 124.777344 197.546875 125.492188 L 189.277344 149.671875 C 189.082031 150.242188 188.554688 150.597656 187.984375 150.597656 "></path><path style=" stroke:none;fill-rule:nonzero;fill:#ffffff;fill-opacity:1;" d="M 184.230469 151.089844 C 183.90625 151.089844 183.582031 150.976562 183.324219 150.742188 L 167.648438 136.792969 C 167.085938 136.289062 167.035156 135.429688 167.535156 134.863281 C 168.035156 134.300781 168.902344 134.25 169.464844 134.753906 L 185.136719 148.703125 C 185.703125 149.203125 185.75 150.066406 185.25 150.632812 C 184.980469 150.933594 184.605469 151.089844 184.230469 151.089844 "></path><path style=" stroke:none;fill-rule:nonzero;fill:#ffffff;fill-opacity:1;" d="M 209.53125 178.695312 C 209.25 178.695312 208.96875 178.582031 208.769531 178.355469 L 187.59375 154.773438 C 187.21875 154.351562 187.25 153.707031 187.671875 153.328125 C 188.09375 152.949219 188.742188 152.984375 189.117188 153.40625 L 210.292969 176.988281 C 210.667969 177.410156 210.636719 178.054688 210.214844 178.433594 C 210.019531 178.609375 209.773438 178.695312 209.53125 178.695312 "></path><g style="fill:#ffffff;fill-opacity:1;"><g transform="translate(119.201876, 232.067738)"><path style="stroke:none" d="M 1.109375 -15.515625 L 11.53125 -15.515625 C 12.15625 -15.515625 12.675781 -15.300781 13.09375 -14.875 C 13.519531 -14.445312 13.734375 -13.921875 13.734375 -13.296875 L 13.734375 -6.640625 C 13.734375 -6.023438 13.519531 -5.5 13.09375 -5.0625 C 12.675781 -4.632812 12.15625 -4.421875 11.53125 -4.421875 L 4.859375 -4.421875 L 4.859375 0 L 1.109375 0 Z M 4.859375 -7.59375 L 9.40625 -7.59375 C 9.570312 -7.59375 9.707031 -7.640625 9.8125 -7.734375 C 9.914062 -7.835938 9.96875 -7.972656 9.96875 -8.140625 L 9.96875 -11.796875 C 9.96875 -11.960938 9.914062 -12.09375 9.8125 -12.1875 C 9.707031 -12.289062 9.570312 -12.34375 9.40625 -12.34375 L 4.859375 -12.34375 Z M 4.859375 -7.59375 "></path></g></g><g style="fill:#ffffff;fill-opacity:1;"><g transform="translate(134.231961, 232.067738)"><path style="stroke:none" d="M 3.328125 -15.515625 L 11.53125 -15.515625 C 11.925781 -15.515625 12.289062 -15.410156 12.625 -15.203125 C 12.96875 -15.003906 13.238281 -14.734375 13.4375 -14.390625 C 13.632812 -14.054688 13.734375 -13.691406 13.734375 -13.296875 L 13.734375 -2.21875 C 13.734375 -1.8125 13.632812 -1.441406 13.4375 -1.109375 C 13.238281 -0.785156 12.96875 -0.519531 12.625 -0.3125 C 12.289062 -0.101562 11.925781 0 11.53125 0 L 3.328125 0 C 2.929688 0 2.566406 -0.101562 2.234375 -0.3125 C 1.898438 -0.519531 1.628906 -0.785156 1.421875 -1.109375 C 1.210938 -1.441406 1.109375 -1.8125 1.109375 -2.21875 L 1.109375 -13.296875 C 1.109375 -13.691406 1.210938 -14.054688 1.421875 -14.390625 C 1.628906 -14.734375 1.898438 -15.003906 2.234375 -15.203125 C 2.566406 -15.410156 2.929688 -15.515625 3.328125 -15.515625 Z M 5.421875 -12.34375 C 5.265625 -12.34375 5.128906 -12.289062 5.015625 -12.1875 C 4.910156 -12.09375 4.859375 -11.960938 4.859375 -11.796875 L 4.859375 -3.703125 C 4.859375 -3.546875 4.910156 -3.414062 5.015625 -3.3125 C 5.128906 -3.21875 5.265625 -3.171875 5.421875 -3.171875 L 9.40625 -3.171875 C 9.570312 -3.171875 9.707031 -3.21875 9.8125 -3.3125 C 9.914062 -3.414062 9.96875 -3.546875 9.96875 -3.703125 L 9.96875 -11.796875 C 9.96875 -11.960938 9.914062 -12.09375 9.8125 -12.1875 C 9.707031 -12.289062 9.570312 -12.34375 9.40625 -12.34375 Z M 5.421875 -12.34375 "></path></g></g><g style="fill:#ffffff;fill-opacity:1;"><g transform="translate(149.262046, 232.067738)"><path style="stroke:none" d="M 0.21875 -15.515625 L 4.109375 -15.515625 L 6.09375 -6.1875 L 8.09375 -15.515625 L 11.84375 -15.515625 L 13.84375 -6.1875 L 15.828125 -15.515625 L 19.71875 -15.515625 L 15.765625 0 L 12.015625 0 L 9.96875 -9.453125 L 7.921875 0 L 4.171875 0 Z M 0.21875 -15.515625 "></path></g></g><g style="fill:#ffffff;fill-opacity:1;"><g transform="translate(169.395143, 232.067738)"><path style="stroke:none" d="M 1.109375 -15.515625 L 12.71875 -15.515625 L 12.71875 -12.34375 L 4.859375 -12.34375 L 4.859375 -9.34375 L 10.5 -9.34375 L 10.5 -6.15625 L 4.859375 -6.15625 L 4.859375 -3.171875 L 12.71875 -3.171875 L 12.71875 0 L 1.109375 0 Z M 1.109375 -15.515625 "></path></g></g><g style="fill:#ffffff;fill-opacity:1;"><g transform="translate(182.910271, 232.067738)"><path style="stroke:none" d="M 1.109375 -15.515625 L 11.53125 -15.515625 C 12.15625 -15.515625 12.675781 -15.300781 13.09375 -14.875 C 13.519531 -14.445312 13.734375 -13.921875 13.734375 -13.296875 L 13.734375 -7.421875 C 13.734375 -6.804688 13.519531 -6.28125 13.09375 -5.84375 C 12.675781 -5.414062 12.15625 -5.203125 11.53125 -5.203125 L 11.34375 -5.203125 L 14.9375 0 L 10.34375 0 L 6.765625 -5.203125 L 4.859375 -5.203125 L 4.859375 0 L 1.109375 0 Z M 4.859375 -8.375 L 9.40625 -8.375 C 9.570312 -8.375 9.707031 -8.421875 9.8125 -8.515625 C 9.914062 -8.617188 9.96875 -8.75 9.96875 -8.90625 L 9.96875 -11.796875 C 9.96875 -11.960938 9.914062 -12.09375 9.8125 -12.1875 C 9.707031 -12.289062 9.570312 -12.34375 9.40625 -12.34375 L 4.859375 -12.34375 Z M 4.859375 -8.375 "></path></g></g><g style="fill:#ffffff;fill-opacity:1;"><g transform="translate(198.159626, 232.067738)"><path style="stroke:none" d=""></path></g></g><g style="fill:#ffffff;fill-opacity:1;"><g transform="translate(204.678054, 232.067738)"><path style="stroke:none" d="M 1.109375 -15.515625 L 4.859375 -15.515625 L 4.859375 -9.453125 L 9.96875 -9.453125 L 9.96875 -15.515625 L 13.734375 -15.515625 L 13.734375 0 L 9.96875 0 L 9.96875 -6.046875 L 4.859375 -6.046875 L 4.859375 0 L 1.109375 0 Z M 1.109375 -15.515625 "></path></g></g><g style="fill:#ffffff;fill-opacity:1;"><g transform="translate(219.708139, 232.067738)"><path style="stroke:none" d="M 3.328125 -15.515625 L 11.53125 -15.515625 C 11.925781 -15.515625 12.289062 -15.410156 12.625 -15.203125 C 12.96875 -15.003906 13.238281 -14.734375 13.4375 -14.390625 C 13.632812 -14.054688 13.734375 -13.691406 13.734375 -13.296875 L 13.734375 -2.21875 C 13.734375 -1.8125 13.632812 -1.441406 13.4375 -1.109375 C 13.238281 -0.785156 12.96875 -0.519531 12.625 -0.3125 C 12.289062 -0.101562 11.925781 0 11.53125 0 L 3.328125 0 C 2.929688 0 2.566406 -0.101562 2.234375 -0.3125 C 1.898438 -0.519531 1.628906 -0.785156 1.421875 -1.109375 C 1.210938 -1.441406 1.109375 -1.8125 1.109375 -2.21875 L 1.109375 -13.296875 C 1.109375 -13.691406 1.210938 -14.054688 1.421875 -14.390625 C 1.628906 -14.734375 1.898438 -15.003906 2.234375 -15.203125 C 2.566406 -15.410156 2.929688 -15.515625 3.328125 -15.515625 Z M 5.421875 -12.34375 C 5.265625 -12.34375 5.128906 -12.289062 5.015625 -12.1875 C 4.910156 -12.09375 4.859375 -11.960938 4.859375 -11.796875 L 4.859375 -3.703125 C 4.859375 -3.546875 4.910156 -3.414062 5.015625 -3.3125 C 5.128906 -3.21875 5.265625 -3.171875 5.421875 -3.171875 L 9.40625 -3.171875 C 9.570312 -3.171875 9.707031 -3.21875 9.8125 -3.3125 C 9.914062 -3.414062 9.96875 -3.546875 9.96875 -3.703125 L 9.96875 -11.796875 C 9.96875 -11.960938 9.914062 -12.09375 9.8125 -12.1875 C 9.707031 -12.289062 9.570312 -12.34375 9.40625 -12.34375 Z M 5.421875 -12.34375 "></path></g></g><g style="fill:#ffffff;fill-opacity:1;"><g transform="translate(234.738225, 232.067738)"><path style="stroke:none" d="M 1.109375 -15.515625 L 4.859375 -15.515625 L 4.859375 -3.703125 C 4.859375 -3.546875 4.910156 -3.414062 5.015625 -3.3125 C 5.128906 -3.21875 5.265625 -3.171875 5.421875 -3.171875 L 9.40625 -3.171875 C 9.570312 -3.171875 9.707031 -3.21875 9.8125 -3.3125 C 9.914062 -3.414062 9.96875 -3.546875 9.96875 -3.703125 L 9.96875 -15.515625 L 13.734375 -15.515625 L 13.734375 -2.21875 C 13.734375 -1.8125 13.632812 -1.441406 13.4375 -1.109375 C 13.238281 -0.785156 12.96875 -0.519531 12.625 -0.3125 C 12.289062 -0.101562 11.925781 0 11.53125 0 L 3.328125 0 C 2.929688 0 2.566406 -0.101562 2.234375 -0.3125 C 1.898438 -0.519531 1.628906 -0.785156 1.421875 -1.109375 C 1.210938 -1.441406 1.109375 -1.8125 1.109375 -2.21875 Z M 1.109375 -15.515625 "></path></g></g><g style="fill:#ffffff;fill-opacity:1;"><g transform="translate(249.76831, 232.067738)"><path style="stroke:none" d="M 1.109375 -15.515625 L 11.53125 -15.515625 C 12.15625 -15.515625 12.675781 -15.300781 13.09375 -14.875 C 13.519531 -14.445312 13.734375 -13.921875 13.734375 -13.296875 L 13.734375 -7.421875 C 13.734375 -6.804688 13.519531 -6.28125 13.09375 -5.84375 C 12.675781 -5.414062 12.15625 -5.203125 11.53125 -5.203125 L 11.34375 -5.203125 L 14.9375 0 L 10.34375 0 L 6.765625 -5.203125 L 4.859375 -5.203125 L 4.859375 0 L 1.109375 0 Z M 4.859375 -8.375 L 9.40625 -8.375 C 9.570312 -8.375 9.707031 -8.421875 9.8125 -8.515625 C 9.914062 -8.617188 9.96875 -8.75 9.96875 -8.90625 L 9.96875 -11.796875 C 9.96875 -11.960938 9.914062 -12.09375 9.8125 -12.1875 C 9.707031 -12.289062 9.570312 -12.34375 9.40625 -12.34375 L 4.859375 -12.34375 Z M 4.859375 -8.375 "></path></g></g><g style="fill:#ffffff;fill-opacity:1;"><g transform="translate(139.559182, 249.620067)"><path style="stroke:none" d="M 8.515625 -1.84375 L 7.09375 -1.84375 L 7.09375 0 L 5.109375 0 L 5.109375 -1.84375 L 0.390625 -1.84375 L 0.390625 -3.203125 L 4.53125 -8.765625 L 6.65625 -8.765625 L 2.8125 -3.5 L 5.171875 -3.5 L 5.171875 -5.140625 L 7.09375 -5.140625 L 7.09375 -3.5 L 8.515625 -3.5 Z M 8.515625 -1.84375 "></path></g></g><g style="fill:#ffffff;fill-opacity:1;"><g transform="translate(149.034477, 249.620067)"><path style="stroke:none" d="M 3.5 -5.46875 C 4.726562 -5.46875 5.640625 -5.222656 6.234375 -4.734375 C 6.828125 -4.242188 7.125 -3.582031 7.125 -2.75 C 7.125 -2.21875 6.988281 -1.734375 6.71875 -1.296875 C 6.445312 -0.859375 6.035156 -0.503906 5.484375 -0.234375 C 4.941406 0.0234375 4.269531 0.15625 3.46875 0.15625 C 2.851562 0.15625 2.242188 0.0703125 1.640625 -0.09375 C 1.046875 -0.257812 0.539062 -0.492188 0.125 -0.796875 L 0.921875 -2.34375 C 1.253906 -2.09375 1.640625 -1.894531 2.078125 -1.75 C 2.515625 -1.613281 2.960938 -1.546875 3.421875 -1.546875 C 3.929688 -1.546875 4.332031 -1.644531 4.625 -1.84375 C 4.914062 -2.050781 5.0625 -2.332031 5.0625 -2.6875 C 5.0625 -3.070312 4.90625 -3.359375 4.59375 -3.546875 C 4.289062 -3.734375 3.765625 -3.828125 3.015625 -3.828125 L 0.78125 -3.828125 L 1.234375 -8.765625 L 6.578125 -8.765625 L 6.578125 -7.140625 L 2.921875 -7.140625 L 2.78125 -5.46875 Z M 3.5 -5.46875 "></path></g></g><g style="fill:#ffffff;fill-opacity:1;"><g transform="translate(157.35836, 249.620067)"><path style="stroke:none" d="M 6.734375 -3.625 L 4.5625 -3.625 L 4.5625 -1.484375 L 2.9375 -1.484375 L 2.9375 -3.625 L 0.78125 -3.625 L 0.78125 -5.15625 L 2.9375 -5.15625 L 2.9375 -7.28125 L 4.5625 -7.28125 L 4.5625 -5.15625 L 6.734375 -5.15625 Z M 6.734375 -3.625 "></path></g></g><g style="fill:#ffffff;fill-opacity:1;"><g transform="translate(165.732299, 249.620067)"><path style="stroke:none" d=""></path></g></g><g style="fill:#ffffff;fill-opacity:1;"><g transform="translate(170.151331, 249.620067)"><path style="stroke:none" d="M 9.015625 0 L 9.015625 -5.265625 L 6.421875 -0.921875 L 5.515625 -0.921875 L 2.9375 -5.15625 L 2.9375 0 L 1.046875 0 L 1.046875 -8.765625 L 2.71875 -8.765625 L 6 -3.328125 L 9.234375 -8.765625 L 10.90625 -8.765625 L 10.921875 0 Z M 9.015625 0 "></path></g></g><g style="fill:#ffffff;fill-opacity:1;"><g transform="translate(182.98081, 249.620067)"><path style="stroke:none" d="M 1.046875 -8.765625 L 3.0625 -8.765625 L 3.0625 0 L 1.046875 0 Z M 1.046875 -8.765625 "></path></g></g><g style="fill:#ffffff;fill-opacity:1;"><g transform="translate(187.96304, 249.620067)"><path style="stroke:none" d="M 9.078125 -8.765625 L 9.078125 0 L 7.421875 0 L 3.046875 -5.328125 L 3.046875 0 L 1.046875 0 L 1.046875 -8.765625 L 2.71875 -8.765625 L 7.078125 -3.453125 L 7.078125 -8.765625 Z M 9.078125 -8.765625 "></path></g></g><g style="fill:#ffffff;fill-opacity:1;"><g transform="translate(198.952732, 249.620067)"><path style="stroke:none" d="M 4.9375 0.15625 C 3.6875 0.15625 2.710938 -0.191406 2.015625 -0.890625 C 1.316406 -1.585938 0.96875 -2.578125 0.96875 -3.859375 L 0.96875 -8.765625 L 3 -8.765625 L 3 -3.9375 C 3 -2.363281 3.648438 -1.578125 4.953125 -1.578125 C 5.585938 -1.578125 6.070312 -1.765625 6.40625 -2.140625 C 6.738281 -2.523438 6.90625 -3.125 6.90625 -3.9375 L 6.90625 -8.765625 L 8.90625 -8.765625 L 8.90625 -3.859375 C 8.90625 -2.578125 8.554688 -1.585938 7.859375 -0.890625 C 7.160156 -0.191406 6.1875 0.15625 4.9375 0.15625 Z M 4.9375 0.15625 "></path></g></g><g style="fill:#ffffff;fill-opacity:1;"><g transform="translate(209.541824, 249.620067)"><path style="stroke:none" d="M 2.859375 -7.125 L 0.046875 -7.125 L 0.046875 -8.765625 L 7.6875 -8.765625 L 7.6875 -7.125 L 4.890625 -7.125 L 4.890625 0 L 2.859375 0 Z M 2.859375 -7.125 "></path></g></g><g style="fill:#ffffff;fill-opacity:1;"><g transform="translate(218.15356, 249.620067)"><path style="stroke:none" d="M 7.828125 -1.625 L 7.828125 0 L 1.046875 0 L 1.046875 -8.765625 L 7.671875 -8.765625 L 7.671875 -7.140625 L 3.0625 -7.140625 L 3.0625 -5.234375 L 7.125 -5.234375 L 7.125 -3.65625 L 3.0625 -3.65625 L 3.0625 -1.625 Z M 7.828125 -1.625 "></path></g></g><g style="fill:#ffffff;fill-opacity:1;"><g transform="translate(227.428618, 249.620067)"><path style="stroke:none" d="M 3.921875 0.15625 C 3.222656 0.15625 2.550781 0.0625 1.90625 -0.125 C 1.257812 -0.3125 0.738281 -0.554688 0.34375 -0.859375 L 1.046875 -2.390625 C 1.421875 -2.117188 1.863281 -1.898438 2.375 -1.734375 C 2.894531 -1.566406 3.414062 -1.484375 3.9375 -1.484375 C 4.507812 -1.484375 4.929688 -1.566406 5.203125 -1.734375 C 5.484375 -1.910156 5.625 -2.140625 5.625 -2.421875 C 5.625 -2.628906 5.539062 -2.800781 5.375 -2.9375 C 5.21875 -3.070312 5.007812 -3.179688 4.75 -3.265625 C 4.5 -3.347656 4.15625 -3.441406 3.71875 -3.546875 C 3.050781 -3.703125 2.503906 -3.859375 2.078125 -4.015625 C 1.648438 -4.179688 1.285156 -4.4375 0.984375 -4.78125 C 0.679688 -5.132812 0.53125 -5.601562 0.53125 -6.1875 C 0.53125 -6.695312 0.664062 -7.160156 0.9375 -7.578125 C 1.21875 -7.992188 1.632812 -8.320312 2.1875 -8.5625 C 2.738281 -8.800781 3.414062 -8.921875 4.21875 -8.921875 C 4.78125 -8.921875 5.328125 -8.851562 5.859375 -8.71875 C 6.398438 -8.582031 6.867188 -8.390625 7.265625 -8.140625 L 6.640625 -6.609375 C 5.828125 -7.066406 5.015625 -7.296875 4.203125 -7.296875 C 3.640625 -7.296875 3.222656 -7.203125 2.953125 -7.015625 C 2.679688 -6.828125 2.546875 -6.585938 2.546875 -6.296875 C 2.546875 -5.992188 2.703125 -5.769531 3.015625 -5.625 C 3.328125 -5.476562 3.804688 -5.332031 4.453125 -5.1875 C 5.117188 -5.03125 5.664062 -4.867188 6.09375 -4.703125 C 6.519531 -4.546875 6.882812 -4.296875 7.1875 -3.953125 C 7.488281 -3.617188 7.640625 -3.15625 7.640625 -2.5625 C 7.640625 -2.0625 7.5 -1.601562 7.21875 -1.1875 C 6.9375 -0.78125 6.515625 -0.453125 5.953125 -0.203125 C 5.398438 0.0351562 4.722656 0.15625 3.921875 0.15625 Z M 3.921875 0.15625 "></path></g></g><g style="fill:#ffffff;fill-opacity:1;"><g transform="translate(104.995618, 203.212369)"><path style="stroke:none" d="M 3.703125 -8.40625 L 3.703125 0 L 1.765625 0 L 1.765625 -6.84375 L 0.078125 -6.84375 L 0.078125 -8.40625 Z M 3.703125 -8.40625 "></path></g></g><g style="fill:#ffffff;fill-opacity:1;"><g transform="translate(109.699631, 203.212369)"><path style="stroke:none" d="M 3.421875 -8.546875 C 4.597656 -8.546875 5.515625 -8.1875 6.171875 -7.46875 C 6.835938 -6.75 7.171875 -5.71875 7.171875 -4.375 C 7.171875 -3.425781 6.992188 -2.609375 6.640625 -1.921875 C 6.285156 -1.242188 5.78125 -0.726562 5.125 -0.375 C 4.476562 -0.03125 3.734375 0.140625 2.890625 0.140625 C 2.441406 0.140625 2.015625 0.09375 1.609375 0 C 1.203125 -0.101562 0.851562 -0.25 0.5625 -0.4375 L 1.28125 -1.859375 C 1.6875 -1.578125 2.210938 -1.4375 2.859375 -1.4375 C 3.566406 -1.4375 4.128906 -1.644531 4.546875 -2.0625 C 4.960938 -2.488281 5.1875 -3.097656 5.21875 -3.890625 C 4.71875 -3.378906 4.019531 -3.125 3.125 -3.125 C 2.59375 -3.125 2.109375 -3.234375 1.671875 -3.453125 C 1.234375 -3.671875 0.882812 -3.976562 0.625 -4.375 C 0.363281 -4.769531 0.234375 -5.226562 0.234375 -5.75 C 0.234375 -6.3125 0.375 -6.800781 0.65625 -7.21875 C 0.9375 -7.644531 1.316406 -7.972656 1.796875 -8.203125 C 2.285156 -8.429688 2.828125 -8.546875 3.421875 -8.546875 Z M 3.5625 -4.578125 C 3.988281 -4.578125 4.332031 -4.695312 4.59375 -4.9375 C 4.863281 -5.175781 5 -5.476562 5 -5.84375 C 5 -6.207031 4.867188 -6.503906 4.609375 -6.734375 C 4.347656 -6.972656 3.992188 -7.09375 3.546875 -7.09375 C 3.128906 -7.09375 2.789062 -6.976562 2.53125 -6.75 C 2.269531 -6.53125 2.140625 -6.226562 2.140625 -5.84375 C 2.140625 -5.457031 2.269531 -5.148438 2.53125 -4.921875 C 2.789062 -4.691406 3.132812 -4.578125 3.5625 -4.578125 Z M 3.5625 -4.578125 "></path></g></g><g style="fill:#ffffff;fill-opacity:1;"><g transform="translate(254.419881, 203.212369)"><path style="stroke:none" d="M 3.421875 -8.546875 C 4.597656 -8.546875 5.515625 -8.1875 6.171875 -7.46875 C 6.835938 -6.75 7.171875 -5.71875 7.171875 -4.375 C 7.171875 -3.425781 6.992188 -2.609375 6.640625 -1.921875 C 6.285156 -1.242188 5.78125 -0.726562 5.125 -0.375 C 4.476562 -0.03125 3.734375 0.140625 2.890625 0.140625 C 2.441406 0.140625 2.015625 0.09375 1.609375 0 C 1.203125 -0.101562 0.851562 -0.25 0.5625 -0.4375 L 1.28125 -1.859375 C 1.6875 -1.578125 2.210938 -1.4375 2.859375 -1.4375 C 3.566406 -1.4375 4.128906 -1.644531 4.546875 -2.0625 C 4.960938 -2.488281 5.1875 -3.097656 5.21875 -3.890625 C 4.71875 -3.378906 4.019531 -3.125 3.125 -3.125 C 2.59375 -3.125 2.109375 -3.234375 1.671875 -3.453125 C 1.234375 -3.671875 0.882812 -3.976562 0.625 -4.375 C 0.363281 -4.769531 0.234375 -5.226562 0.234375 -5.75 C 0.234375 -6.3125 0.375 -6.800781 0.65625 -7.21875 C 0.9375 -7.644531 1.316406 -7.972656 1.796875 -8.203125 C 2.285156 -8.429688 2.828125 -8.546875 3.421875 -8.546875 Z M 3.5625 -4.578125 C 3.988281 -4.578125 4.332031 -4.695312 4.59375 -4.9375 C 4.863281 -5.175781 5 -5.476562 5 -5.84375 C 5 -6.207031 4.867188 -6.503906 4.609375 -6.734375 C 4.347656 -6.972656 3.992188 -7.09375 3.546875 -7.09375 C 3.128906 -7.09375 2.789062 -6.976562 2.53125 -6.75 C 2.269531 -6.53125 2.140625 -6.226562 2.140625 -5.84375 C 2.140625 -5.457031 2.269531 -5.148438 2.53125 -4.921875 C 2.789062 -4.691406 3.132812 -4.578125 3.5625 -4.578125 Z M 3.5625 -4.578125 "></path></g></g><g style="fill:#ffffff;fill-opacity:1;"><g transform="translate(262.063893, 203.212369)"><path style="stroke:none" d="M 6.21875 -4.421875 C 6.632812 -4.210938 6.953125 -3.9375 7.171875 -3.59375 C 7.390625 -3.257812 7.5 -2.875 7.5 -2.4375 C 7.5 -1.914062 7.347656 -1.457031 7.046875 -1.0625 C 6.753906 -0.675781 6.335938 -0.378906 5.796875 -0.171875 C 5.265625 0.0351562 4.648438 0.140625 3.953125 0.140625 C 3.242188 0.140625 2.625 0.0351562 2.09375 -0.171875 C 1.5625 -0.378906 1.148438 -0.675781 0.859375 -1.0625 C 0.566406 -1.457031 0.421875 -1.914062 0.421875 -2.4375 C 0.421875 -2.875 0.53125 -3.257812 0.75 -3.59375 C 0.96875 -3.9375 1.28125 -4.210938 1.6875 -4.421875 C 1.375 -4.609375 1.132812 -4.847656 0.96875 -5.140625 C 0.800781 -5.429688 0.71875 -5.765625 0.71875 -6.140625 C 0.71875 -6.628906 0.851562 -7.050781 1.125 -7.40625 C 1.394531 -7.769531 1.773438 -8.050781 2.265625 -8.25 C 2.753906 -8.445312 3.316406 -8.546875 3.953125 -8.546875 C 4.585938 -8.546875 5.148438 -8.445312 5.640625 -8.25 C 6.140625 -8.050781 6.523438 -7.769531 6.796875 -7.40625 C 7.066406 -7.050781 7.203125 -6.628906 7.203125 -6.140625 C 7.203125 -5.765625 7.117188 -5.429688 6.953125 -5.140625 C 6.785156 -4.847656 6.539062 -4.609375 6.21875 -4.421875 Z M 3.953125 -7.109375 C 3.554688 -7.109375 3.238281 -7.015625 3 -6.828125 C 2.769531 -6.640625 2.65625 -6.382812 2.65625 -6.0625 C 2.65625 -5.738281 2.769531 -5.484375 3 -5.296875 C 3.226562 -5.117188 3.546875 -5.03125 3.953125 -5.03125 C 4.347656 -5.03125 4.664062 -5.117188 4.90625 -5.296875 C 5.144531 -5.484375 5.265625 -5.738281 5.265625 -6.0625 C 5.265625 -6.382812 5.144531 -6.640625 4.90625 -6.828125 C 4.664062 -7.015625 4.347656 -7.109375 3.953125 -7.109375 Z M 3.953125 -1.28125 C 4.441406 -1.28125 4.828125 -1.390625 5.109375 -1.609375 C 5.390625 -1.828125 5.53125 -2.125 5.53125 -2.5 C 5.53125 -2.863281 5.390625 -3.15625 5.109375 -3.375 C 4.828125 -3.59375 4.441406 -3.703125 3.953125 -3.703125 C 3.472656 -3.703125 3.09375 -3.59375 2.8125 -3.375 C 2.53125 -3.15625 2.390625 -2.863281 2.390625 -2.5 C 2.390625 -2.125 2.53125 -1.828125 2.8125 -1.609375 C 3.09375 -1.390625 3.472656 -1.28125 3.953125 -1.28125 Z M 3.953125 -1.28125 "></path></g></g></g></svg>